<svg width="122" height="124" viewBox="0 0 122 124" fill="none" xmlns="http://www.w3.org/2000/svg">
<g filter="url(#filter0_d_39_901)">
<path d="M73.1598 64.5023L25.1604 106.895C25.1604 106.895 39.5795 111.629 62.9708 103.261C86.9663 94.6751 107.361 72.1232 109.72 43.7213C111.768 19.0544 107.252 16.2092 105.85 14.3879C104.482 12.6086 102.174 12.382 102.174 12.382L73.1598 64.5023Z" fill="#6D2A19"/>
<path d="M30.3221 31.2997C10.1958 53.3313 11.0099 79.4418 11.4547 89.2532C11.7485 95.7998 12.8815 99.1234 16.0625 102.623C19.0336 105.888 25.236 108.809 37.8674 106.132C51.0192 103.345 71.0365 94.1463 89.1653 73.4996C108.394 51.5939 109.971 17.04 104.768 13.322C99.5642 9.60386 89.0142 6.78382 78.7664 7.37973C68.5186 7.97563 49.1979 10.6446 30.3221 31.2997Z" fill="#9C3C25"/>
<path d="M15.9197 102.497C15.6763 102.657 13.7207 101.39 13.6368 99.073C13.4857 95.1619 16.1295 83.9237 19.8728 75.3377C23.3894 67.2553 25.9073 63.6379 25.9073 63.6379C25.9073 63.6379 23.5321 61.3214 23.616 57.0074C23.7 52.6934 25.1939 44.4515 41.619 28.5804C59.0092 11.7525 64.8759 13.5066 67.6624 13.5738C69.9537 13.6325 73.5375 14.9922 73.806 15.0677C73.806 15.0677 79.3202 11.4671 84.9939 10.2753C90.6675 9.08353 96.3747 9.74658 97.3064 9.8389C98.2464 9.93122 99.8578 10.46 101.142 11.0727C102.367 11.6518 103.819 12.6757 103.819 12.6757C103.819 12.6757 93.7477 11.4252 87.1928 13.1038C80.6379 14.7824 76.5254 17.2331 76.5254 17.2331C76.5254 17.2331 78.3718 20.4896 78.2039 22.7473C77.9605 25.945 75.8875 28.5804 69.9704 34.6569C64.8088 39.9613 46.2855 60.843 43.9942 63.1847C41.0398 66.2229 37.3637 67.6581 34.0821 67.3392C30.8088 67.0203 28.8113 65.7445 28.8113 65.7445C28.8113 65.7445 25.2107 71.8966 22.5753 78.376C19.9399 84.8553 18.1774 91.4858 16.6582 98.9975C16.2806 100.894 16.3729 102.195 15.9197 102.497Z" fill="#6D291A"/>
<path d="M29.3149 62.723C31.4551 63.9904 37.1875 64.6534 40.444 62.0264C43.7004 59.4078 47.9976 53.3061 57.7419 42.5043C65.1277 34.3296 73.613 27.3886 74.0159 23.4187C74.5446 18.1647 69.811 16.2763 64.7248 16.6707C59.6471 17.0652 50.0371 24.0566 42.0974 32.3153C34.1576 40.5739 27.9636 48.4298 26.6963 53.9859C25.9157 57.4019 26.7214 61.1787 29.3149 62.723Z" fill="#9C3C25"/>
<path d="M64.0281 9.72136C64.0281 9.72136 70.4487 10.8796 77.0372 15.2439C83.6257 19.6083 90.8101 25.2987 95.208 30.1247C97.7007 32.8608 104.65 41.7658 105.053 41.7658C105.456 41.7658 106.253 36.4446 106.497 34.4639C106.732 32.4831 107.134 30.5695 106.891 29.8561C106.656 29.1427 102.015 22.9403 94.503 16.2763C85.9673 8.70581 78.0444 7.36293 78.0444 7.36293C78.0444 7.36293 75.9881 7.28739 70.8096 7.95883C67.0579 8.45402 64.0281 9.72136 64.0281 9.72136Z" fill="#F2F0EE"/>
<path d="M13.8717 61.7746C13.8717 61.7746 18.1269 62.7986 25.4288 67.8763C33.6539 73.6003 38.7653 78.1158 44.9593 84.4693C50.8428 90.5038 57.1627 98.5275 57.1627 99.0059C57.1627 99.4843 54.6616 100.483 50.9938 102.095C49.1977 102.883 45.7818 104.361 45.2195 104.117C44.6655 103.882 40.1585 97.0419 33.1252 90.2604C28.6769 85.9716 23.8342 81.3722 17.6401 77.5534C13.6786 75.1195 11.6643 74.6495 11.6643 74.6495C11.6643 74.6495 11.6475 71.7623 12.4785 67.3895C13.2254 63.5204 13.8717 61.7746 13.8717 61.7746Z" fill="#F2F0EE"/>
<path d="M51.5646 31.8536C41.0062 41.8581 29.0295 57.704 28.3664 58.6692C27.2166 60.331 27.1914 61.6487 28.677 62.5719C30.1625 63.4952 31.2368 62.018 32.1768 60.8094C33.2176 59.4749 42.6681 45.8028 52.5382 36.3019C63.9526 25.3323 71.7917 20.1622 72.7485 19.2138C73.4535 18.5088 75.2916 17.7031 73.7808 16.2763C72.631 15.1852 70.3649 16.5952 69.4165 17.3086C68.4597 18.022 62.7357 21.2701 51.5646 31.8536Z" fill="#FDFFFF"/>
<path d="M62.5089 15.2775C61.0066 16.4441 61.1493 18.576 62.9454 19.986C64.3134 21.0603 67.2342 23.3683 68.6274 24.6441C70.3228 26.1968 71.9427 26.4905 73.1932 25.5169C74.5025 24.5014 75.1823 21.9751 72.8575 19.6419C70.5494 17.3338 69.2149 15.949 66.7894 14.9838C65.2115 14.3543 63.5832 14.455 62.5089 15.2775Z" fill="#FDFFFF"/>
<path d="M60.5787 21.0267C59.1939 20.4896 56.8607 19.4404 55.031 21.1022C53.2013 22.7641 54.1665 24.9043 55.8115 26.0961C57.4566 27.2879 59.8234 29.6379 62.1734 31.3081C63.5163 32.2565 65.8327 33.0371 67.4778 31.2242C68.8374 29.7218 67.6792 27.2375 66.6553 25.987C65.4635 24.5182 63.0127 21.9667 60.5787 21.0267Z" fill="#FDFFFF"/>
<path d="M54.158 27.9006C52.3619 26.885 49.3488 25.9114 47.3093 28.0013C45.0768 30.2926 46.3357 31.9796 48.5263 33.3392C50.3644 34.4807 54.1076 37.7036 55.3246 38.5345C57.3138 39.8941 59.8484 39.2982 60.8136 37.8043C62.4167 35.3284 60.2261 32.4496 58.5811 31.1067C56.978 29.7974 54.8882 28.3202 54.158 27.9006Z" fill="#FDFFFF"/>
<path d="M40.2757 34.8919C38.9244 36.4614 38.723 38.1484 40.8128 40.4313C42.9027 42.7142 46.562 45.3915 48.677 46.1133C51.1026 46.9359 52.2692 46.0126 53.1421 44.653C54.015 43.2933 53.3267 40.2299 51.0942 38.2407C49.6842 36.9818 47.1663 34.7492 44.0609 34.0694C42.3739 33.7001 41.1485 33.8764 40.2757 34.8919Z" fill="#FDFFFF"/>
<path d="M36.9271 41.6482C35.7605 41.3209 34.2581 41.7909 33.3853 42.8652C32.5124 43.9311 32.0927 46.0462 33.1419 47.238C34.2078 48.455 34.854 48.8998 36.6417 50.4441C38.4378 51.9968 40.2339 53.8936 42.3741 54.137C43.8765 54.3049 45.2361 53.5579 45.874 52.5843C46.5035 51.6107 46.4363 49.4453 44.7074 47.5821C43.482 46.256 40.3682 42.6134 36.9271 41.6482Z" fill="#FDFFFF"/>
<path d="M27.1829 50.7714C25.412 53.0795 26.3856 56.2101 30.7583 58.9714C34.3421 61.2459 37.4979 62.8405 39.6465 60.2303C41.6608 57.7796 39.6968 55.2785 35.1814 52.1731C30.9513 49.2691 28.786 48.69 27.1829 50.7714Z" fill="#FDFFFF"/>
</g>
<defs>
<filter id="filter0_d_39_901" x="4.86374e-05" y="2.86102e-06" width="121.544" height="123.529" filterUnits="userSpaceOnUse" color-interpolation-filters="sRGB">
<feFlood flood-opacity="0" result="BackgroundImageFix"/>
<feColorMatrix in="SourceAlpha" type="matrix" values="0 0 0 0 0 0 0 0 0 0 0 0 0 0 0 0 0 0 127 0" result="hardAlpha"/>
<feOffset dy="4"/>
<feGaussianBlur stdDeviation="5.65"/>
<feComposite in2="hardAlpha" operator="out"/>
<feColorMatrix type="matrix" values="0 0 0 0 0 0 0 0 0 0 0 0 0 0 0 0 0 0 0.25 0"/>
<feBlend mode="normal" in2="BackgroundImageFix" result="effect1_dropShadow_39_901"/>
<feBlend mode="normal" in="SourceGraphic" in2="effect1_dropShadow_39_901" result="shape"/>
</filter>
</defs>
</svg>
