<svg width="126" height="124" viewBox="0 0 126 124" fill="none" xmlns="http://www.w3.org/2000/svg">
<g filter="url(#filter0_d_39_740)">
<path d="M83.1557 7.3H41.392V28.1819H83.1557V7.3Z" fill="#B0342E"/>
<path d="M91.8567 7.3H76.1952C76.1952 10.9921 74.7285 14.5331 72.1178 17.1438C69.5071 19.7546 65.9661 21.2213 62.274 21.2213C58.5818 21.2213 55.0409 19.7546 52.4302 17.1438C49.8194 14.5331 48.3527 10.9921 48.3527 7.3H32.6913C27.1531 7.3 21.8417 9.50005 17.9256 13.4162C14.0095 17.3323 11.8094 22.6437 11.8094 28.1819V94.3078H25.7307L27.396 37.7127C27.416 37.0241 27.7036 36.3704 28.1978 35.8905C28.692 35.4105 29.3539 35.1422 30.0428 35.1425C30.3907 35.1423 30.7352 35.2106 31.0566 35.3436C31.3781 35.4767 31.6701 35.6717 31.9161 35.9177C32.1621 36.1637 32.3572 36.4558 32.4902 36.7772C32.6232 37.0986 32.6916 37.4432 32.6913 37.791V89.0874C32.6913 90.4719 33.2413 91.7998 34.2204 92.7788C35.1994 93.7578 36.5272 94.3078 37.9118 94.3078H86.6362C87.321 94.3094 87.9995 94.176 88.6326 93.915C89.2658 93.6541 89.8414 93.2709 90.3263 92.7873C90.8112 92.3037 91.1959 91.7292 91.4585 91.0967C91.7211 90.4642 91.8564 89.7861 91.8567 89.1013V37.7875C91.8567 37.4399 91.9252 37.0957 92.0583 36.7745C92.1915 36.4534 92.3866 36.1617 92.6326 35.916C92.8786 35.6703 93.1706 35.4756 93.4919 35.3429C93.8132 35.2101 94.1575 35.1421 94.5052 35.1425C95.1941 35.1422 95.8559 35.4105 96.3502 35.8905C96.8444 36.3704 97.132 37.0241 97.1519 37.7127L98.8173 94.3078H112.739V28.1819C112.739 22.6437 110.538 17.3323 106.622 13.4162C102.706 9.50005 97.3949 7.3 91.8567 7.3Z" fill="#DD4A43"/>
<path d="M76.1951 7.3C76.1951 10.9921 74.7284 14.5331 72.1177 17.1438C69.5069 19.7546 65.966 21.2213 62.2738 21.2213C58.5817 21.2213 55.0408 19.7546 52.43 17.1438C49.8193 14.5331 48.3526 10.9921 48.3526 7.3H41.392C41.392 12.8382 43.592 18.1496 47.5081 22.0657C51.4242 25.9818 56.7356 28.1819 62.2738 28.1819C67.8121 28.1819 73.1235 25.9818 77.0396 22.0657C80.9557 18.1496 83.1557 12.8382 83.1557 7.3H76.1951Z" fill="#7EA82D"/>
<path d="M104.038 45.5835C103.576 45.5834 103.134 45.4 102.808 45.0736L97.0772 39.3433C96.751 39.0169 96.5677 38.5744 96.5677 38.113C96.5677 37.6515 96.751 37.209 97.0772 36.8827C97.4036 36.5564 97.8461 36.3732 98.3075 36.3732C98.769 36.3732 99.2115 36.5564 99.5378 36.8827L104.038 41.3827L110.278 35.1425C110.604 34.8163 111.047 34.633 111.508 34.633C111.97 34.633 112.412 34.8163 112.739 35.1425C113.065 35.4688 113.248 35.9114 113.248 36.3728C113.248 36.8342 113.065 37.2768 112.739 37.6031L105.268 45.0736C104.942 45.4 104.499 45.5834 104.038 45.5835Z" fill="#7EA82D"/>
<path d="M83.1558 45.5835C82.6943 45.5834 82.2518 45.4 81.9255 45.0736L72.7149 35.8629L63.5042 45.0736C63.1779 45.3998 62.7354 45.5831 62.2739 45.5831C61.8125 45.5831 61.37 45.3998 61.0436 45.0736L51.833 35.8629L42.6223 45.0736C42.3152 45.381 41.9042 45.5623 41.4701 45.5819C41.036 45.6016 40.6103 45.4581 40.2766 45.1797L31.1739 37.5927C30.8195 37.2972 30.597 36.8732 30.5552 36.4137C30.5135 35.9543 30.6559 35.497 30.9511 35.1425C31.2468 34.7885 31.671 34.5663 32.1304 34.5248C32.5899 34.4834 33.047 34.6261 33.4013 34.9215L41.2842 41.4906L50.6027 32.1738C50.929 31.8476 51.3716 31.6643 51.833 31.6643C52.2944 31.6643 52.737 31.8476 53.0633 32.1738L62.2739 41.3827L71.4846 32.1721C71.8109 31.8458 72.2534 31.6626 72.7149 31.6626C73.1763 31.6626 73.6188 31.8458 73.9452 32.1721L83.2637 41.4889L91.1466 34.9198C91.5011 34.6245 91.9583 34.4822 92.4178 34.5239C92.8772 34.5657 93.3013 34.7882 93.5968 35.1425C93.892 35.497 94.0344 35.9543 93.9926 36.4137C93.9509 36.8732 93.7283 37.2972 93.374 37.5927L84.2713 45.1797C83.9582 45.4408 83.5634 45.5837 83.1558 45.5835Z" fill="#7EA82D"/>
<path d="M20.5103 45.5835C20.0488 45.5834 19.6063 45.4 19.28 45.0736L11.8095 37.6031C11.4833 37.2768 11.3 36.8342 11.3 36.3728C11.3 35.9114 11.4833 35.4688 11.8095 35.1425C12.1359 34.8163 12.5784 34.633 13.0398 34.633C13.5013 34.633 13.9438 34.8163 14.2701 35.1425L20.5103 41.3827L25.0104 36.8827C25.3367 36.5564 25.7792 36.3732 26.2407 36.3732C26.7021 36.3732 27.1446 36.5564 27.471 36.8827C27.7972 37.209 27.9804 37.6515 27.9804 38.113C27.9804 38.5744 27.7972 39.0169 27.471 39.3433L21.7406 45.0736C21.4143 45.4 20.9718 45.5834 20.5103 45.5835Z" fill="#7EA82D"/>
<path d="M104.038 73.426C103.576 73.4259 103.134 73.2425 102.807 72.9161L98.0917 68.2055C97.9299 68.0439 97.8015 67.852 97.7139 67.6407C97.6264 67.4295 97.5813 67.203 97.5813 66.9743C97.5813 66.7456 97.6264 66.5192 97.7139 66.308C97.8015 66.0967 97.9299 65.9048 98.0917 65.7432C98.418 65.4169 98.8605 65.2337 99.322 65.2337C99.7834 65.2337 100.226 65.4169 100.552 65.7432L104.033 69.2235L110.278 62.985C110.604 62.6588 111.047 62.4755 111.508 62.4755C111.97 62.4755 112.412 62.6588 112.739 62.985C113.065 63.3113 113.248 63.7539 113.248 64.2153C113.248 64.6767 113.065 65.1193 112.739 65.4456L105.268 72.9161C104.942 73.2425 104.499 73.4259 104.038 73.426Z" fill="#7EA82D"/>
<path d="M83.1558 73.426C82.6943 73.4259 82.2518 73.2425 81.9255 72.9161L72.7149 63.7055L63.5042 72.9161C63.1779 73.2423 62.7353 73.4256 62.2739 73.4256C61.8125 73.4256 61.37 73.2423 61.0436 72.9161L51.833 63.7055L42.6223 72.9161C42.296 73.2423 41.8535 73.4256 41.392 73.4256C40.9306 73.4256 40.4881 73.2423 40.1617 72.9161L32.6913 65.4456C32.365 65.1193 32.1818 64.6767 32.1818 64.2153C32.1818 63.7539 32.365 63.3114 32.6913 62.985C33.0176 62.6588 33.4601 62.4755 33.9215 62.4755C34.383 62.4755 34.8255 62.6588 35.1518 62.985L41.392 69.2252L50.6027 60.0146C50.929 59.6883 51.3716 59.5051 51.833 59.5051C52.2944 59.5051 52.7369 59.6883 53.0633 60.0146L62.2739 69.2252L71.4846 60.0146C71.8109 59.6883 72.2534 59.5051 72.7149 59.5051C73.1763 59.5051 73.6188 59.6883 73.9451 60.0146L83.1558 69.2252L89.396 62.985C89.7223 62.6588 90.1649 62.4755 90.6263 62.4755C91.0877 62.4755 91.5303 62.6588 91.8566 62.985C92.1828 63.3114 92.3661 63.7539 92.3661 64.2153C92.3661 64.6767 92.1828 65.1193 91.8566 65.4456L84.3861 72.9161C84.0598 73.2425 83.6173 73.4259 83.1558 73.426Z" fill="#7EA82D"/>
<path d="M20.5103 73.426C20.0488 73.4259 19.6063 73.2425 19.28 72.9161L11.8095 65.4456C11.4833 65.1193 11.3 64.6767 11.3 64.2153C11.3 63.7539 11.4833 63.3113 11.8095 62.985C12.1359 62.6588 12.5784 62.4755 13.0398 62.4755C13.5013 62.4755 13.9438 62.6588 14.2701 62.985L20.5347 69.2391L24.149 65.7101C24.4795 65.388 24.9243 65.2103 25.3858 65.2162C25.8472 65.2221 26.2874 65.411 26.6096 65.7414C26.7691 65.9056 26.8948 66.0996 26.9792 66.3124C27.0637 66.5252 27.1053 66.7525 27.1018 66.9814C27.0982 67.2103 27.0495 67.4362 26.9585 67.6463C26.8675 67.8563 26.7359 68.0464 26.5713 68.2055L21.7284 72.9318C21.4026 73.2494 20.9654 73.4268 20.5103 73.426Z" fill="#7EA82D"/>
<path d="M104.038 59.5047C103.576 59.5046 103.134 59.3212 102.808 58.9948L97.0772 53.2645C96.751 52.9382 96.5677 52.4956 96.5677 52.0342C96.5677 51.5728 96.751 51.1302 97.0772 50.8039C97.4036 50.4777 97.8461 50.2944 98.3075 50.2944C98.769 50.2944 99.2115 50.4777 99.5378 50.8039L104.038 55.304L110.278 49.0638C110.604 48.7375 111.047 48.5543 111.508 48.5543C111.97 48.5543 112.412 48.7375 112.739 49.0638C113.065 49.3901 113.248 49.8326 113.248 50.294C113.248 50.7555 113.065 51.198 112.739 51.5243L105.268 58.9948C104.942 59.3212 104.499 59.5046 104.038 59.5047Z" fill="#D13E37"/>
<path d="M83.1558 59.5047C82.6943 59.5046 82.2518 59.3212 81.9255 58.9948L72.7149 49.7842L63.5042 58.9948C63.1779 59.3211 62.7353 59.5043 62.2739 59.5043C61.8125 59.5043 61.37 59.3211 61.0436 58.9948L51.833 49.7842L42.6223 58.9948C42.296 59.3211 41.8535 59.5043 41.392 59.5043C40.9306 59.5043 40.4881 59.3211 40.1617 58.9948L32.6913 51.5244C32.365 51.198 32.1818 50.7555 32.1818 50.2941C32.1818 49.8326 32.365 49.3901 32.6913 49.0638C33.0176 48.7375 33.4601 48.5543 33.9215 48.5543C34.383 48.5543 34.8255 48.7375 35.1518 49.0638L41.392 55.304L50.6027 46.0933C50.929 45.7671 51.3716 45.5838 51.833 45.5838C52.2944 45.5838 52.7369 45.7671 53.0633 46.0933L62.2739 55.304L71.4846 46.0933C71.8109 45.7671 72.2534 45.5838 72.7149 45.5838C73.1763 45.5838 73.6188 45.7671 73.9451 46.0933L83.1558 55.304L89.396 49.0638C89.7223 48.7375 90.1649 48.5543 90.6263 48.5543C91.0877 48.5543 91.5303 48.7375 91.8566 49.0638C92.1828 49.3901 92.3661 49.8326 92.3661 50.2941C92.3661 50.7555 92.1828 51.198 91.8566 51.5244L84.3861 58.9948C84.0598 59.3212 83.6173 59.5046 83.1558 59.5047Z" fill="#D13E37"/>
<path d="M20.5103 59.5047C20.0488 59.5046 19.6063 59.3212 19.28 58.9948L11.8095 51.5243C11.4833 51.198 11.3 50.7555 11.3 50.294C11.3 49.8326 11.4833 49.3901 11.8095 49.0638C12.1359 48.7375 12.5784 48.5543 13.0398 48.5543C13.5013 48.5543 13.9438 48.7375 14.2701 49.0638L20.5103 55.304L25.0104 50.8039C25.3367 50.4777 25.7792 50.2944 26.2407 50.2944C26.7021 50.2944 27.1446 50.4777 27.471 50.8039C27.7972 51.1302 27.9804 51.5728 27.9804 52.0342C27.9804 52.4956 27.7972 52.9382 27.471 53.2645L21.7406 58.9948C21.4143 59.3212 20.9718 59.5046 20.5103 59.5047Z" fill="#D13E37"/>
<path d="M104.038 87.3472C103.576 87.3471 103.134 87.1637 102.807 86.8373L98.8172 82.8472C98.491 82.5208 98.3077 82.0783 98.3077 81.6169C98.3077 81.1554 98.491 80.7129 98.8172 80.3866C99.1436 80.0604 99.5861 79.8771 100.048 79.8771C100.509 79.8771 100.951 80.0604 101.278 80.3866L104.038 83.1465L110.278 76.9063C110.604 76.58 111.047 76.3968 111.508 76.3968C111.97 76.3968 112.412 76.58 112.738 76.9063L113.969 78.1366L105.268 86.8373C104.942 87.1637 104.499 87.3471 104.038 87.3472Z" fill="#D13E37"/>
<path d="M83.1558 87.3472C82.6943 87.3471 82.2518 87.1637 81.9255 86.8373L72.7149 77.6267L63.5042 86.8373C63.1779 87.1636 62.7353 87.3468 62.2739 87.3468C61.8125 87.3468 61.37 87.1636 61.0436 86.8373L51.833 77.6267L42.6223 86.8373C42.296 87.1636 41.8535 87.3468 41.392 87.3468C40.9306 87.3468 40.4881 87.1636 40.1617 86.8373L32.6913 79.3669C32.365 79.0405 32.1818 78.598 32.1818 78.1366C32.1818 77.6751 32.365 77.2326 32.6913 76.9063C33.0176 76.58 33.4601 76.3968 33.9215 76.3968C34.383 76.3968 34.8255 76.58 35.1518 76.9063L41.392 83.1465L50.6027 73.9358C50.929 73.6096 51.3716 73.4263 51.833 73.4263C52.2944 73.4263 52.7369 73.6096 53.0633 73.9358L62.2739 83.1465L71.4846 73.9358C71.8109 73.6096 72.2534 73.4263 72.7149 73.4263C73.1763 73.4263 73.6188 73.6096 73.9451 73.9358L83.1558 83.1465L89.396 76.9063C89.7223 76.58 90.1649 76.3968 90.6263 76.3968C91.0877 76.3968 91.5303 76.58 91.8566 76.9063C92.1828 77.2326 92.3661 77.6751 92.3661 78.1366C92.3661 78.598 92.1828 79.0405 91.8566 79.3669L84.3861 86.8373C84.0598 87.1637 83.6173 87.3471 83.1558 87.3472Z" fill="#D13E37"/>
<path d="M20.5103 87.3472C20.0488 87.3471 19.6063 87.1637 19.28 86.8373L11.8095 79.3669C11.4833 79.0405 11.3 78.598 11.3 78.1366C11.3 77.6751 11.4833 77.2326 11.8095 76.9063C12.1359 76.58 12.5784 76.3968 13.0398 76.3968C13.5013 76.3968 13.9438 76.58 14.2701 76.9063L20.5103 83.1465L23.2702 80.3866C23.5965 80.0604 24.0391 79.8771 24.5005 79.8771C24.9619 79.8771 25.4045 80.0604 25.7308 80.3866C26.057 80.7129 26.2403 81.1554 26.2403 81.6169C26.2403 82.0783 26.057 82.5208 25.7308 82.8472L21.7406 86.8373C21.4144 87.1637 20.9718 87.3471 20.5103 87.3472Z" fill="#D13E37"/>
<path d="M37.9119 108.229L36.1718 94.3078H88.3764L86.6363 108.229H37.9119Z" fill="#D13E37"/>
<path d="M25.7307 94.3078H11.8094L13.5496 108.229H25.7307V94.3078Z" fill="#D13E37"/>
<path d="M98.8171 94.3078H112.738L110.998 108.229H98.8171V94.3078Z" fill="#D13E37"/>
<path d="M60.5338 96.048C60.5338 95.0869 59.7547 94.3078 58.7936 94.3078C57.8326 94.3078 57.0535 95.0869 57.0535 96.048V106.489C57.0535 107.45 57.8326 108.229 58.7936 108.229C59.7547 108.229 60.5338 107.45 60.5338 106.489V96.048Z" fill="#B0342E"/>
<path d="M53.5731 96.048C53.5731 95.0869 52.794 94.3078 51.8329 94.3078C50.8719 94.3078 50.0928 95.0869 50.0928 96.048V106.489C50.0928 107.45 50.8719 108.229 51.8329 108.229C52.794 108.229 53.5731 107.45 53.5731 106.489V96.048Z" fill="#B0342E"/>
<path d="M46.6125 96.048C46.6125 95.0869 45.8334 94.3078 44.8724 94.3078C43.9113 94.3078 43.1322 95.0869 43.1322 96.048V106.489C43.1322 107.45 43.9113 108.229 44.8724 108.229C45.8334 108.229 46.6125 107.45 46.6125 106.489V96.048Z" fill="#B0342E"/>
<path d="M81.4157 96.048C81.4157 95.0869 80.6366 94.3078 79.6756 94.3078C78.7145 94.3078 77.9354 95.0869 77.9354 96.048V106.489C77.9354 107.45 78.7145 108.229 79.6756 108.229C80.6366 108.229 81.4157 107.45 81.4157 106.489V96.048Z" fill="#B0342E"/>
<path d="M74.4549 96.048C74.4549 95.0869 73.6758 94.3078 72.7148 94.3078C71.7537 94.3078 70.9746 95.0869 70.9746 96.048V106.489C70.9746 107.45 71.7537 108.229 72.7148 108.229C73.6758 108.229 74.4549 107.45 74.4549 106.489V96.048Z" fill="#B0342E"/>
<path d="M67.4942 96.048C67.4942 95.0869 66.7151 94.3078 65.7541 94.3078C64.793 94.3078 64.0139 95.0869 64.0139 96.048V106.489C64.0139 107.45 64.793 108.229 65.7541 108.229C66.7151 108.229 67.4942 107.45 67.4942 106.489V96.048Z" fill="#B0342E"/>
<path d="M20.5102 96.048C20.5102 95.0869 19.7311 94.3078 18.7701 94.3078C17.809 94.3078 17.0299 95.0869 17.0299 96.048V106.489C17.0299 107.45 17.809 108.229 18.7701 108.229C19.7311 108.229 20.5102 107.45 20.5102 106.489V96.048Z" fill="#B0342E"/>
<path d="M107.518 96.048C107.518 95.0869 106.739 94.3078 105.778 94.3078C104.817 94.3078 104.038 95.0869 104.038 96.048V106.489C104.038 107.45 104.817 108.229 105.778 108.229C106.739 108.229 107.518 107.45 107.518 106.489V96.048Z" fill="#B0342E"/>
<path d="M28.0521 18.2352L26.8896 14.9567C28.1941 14.4955 29.5676 14.2601 30.9512 14.2606V17.7409C29.9637 17.7396 28.9833 17.9067 28.0521 18.2352Z" fill="#E66B65"/>
<path d="M22.2505 28.1819H18.7701V26.4417C18.7715 24.7283 19.1337 23.0343 19.8332 21.4702C20.5327 19.906 21.5537 18.5067 22.8299 17.3633L25.1513 19.9562C24.2392 20.7727 23.5095 21.7723 23.0096 22.8898C22.5098 24.0073 22.2511 25.2176 22.2505 26.4417V28.1819Z" fill="#E66B65"/>
<path d="M67.4944 12.5205H57.0535V16.0008H67.4944V12.5205Z" fill="#DD4A43"/>
</g>
<defs>
<filter id="filter0_d_39_740" x="4.86374e-05" y="2.86102e-06" width="125.269" height="123.529" filterUnits="userSpaceOnUse" color-interpolation-filters="sRGB">
<feFlood flood-opacity="0" result="BackgroundImageFix"/>
<feColorMatrix in="SourceAlpha" type="matrix" values="0 0 0 0 0 0 0 0 0 0 0 0 0 0 0 0 0 0 127 0" result="hardAlpha"/>
<feOffset dy="4"/>
<feGaussianBlur stdDeviation="5.65"/>
<feComposite in2="hardAlpha" operator="out"/>
<feColorMatrix type="matrix" values="0 0 0 0 0 0 0 0 0 0 0 0 0 0 0 0 0 0 0.25 0"/>
<feBlend mode="normal" in2="BackgroundImageFix" result="effect1_dropShadow_39_740"/>
<feBlend mode="normal" in="SourceGraphic" in2="effect1_dropShadow_39_740" result="shape"/>
</filter>
</defs>
</svg>
