<svg width="118" height="124" viewBox="0 0 118 124" fill="none" xmlns="http://www.w3.org/2000/svg">
<g filter="url(#filter0_d_39_648)">
<path d="M58.7493 21.2213C57.3726 21.2213 56.0269 20.813 54.8822 20.0482C53.7375 19.2833 52.8454 18.1962 52.3185 16.9243C51.7917 15.6525 51.6539 14.2529 51.9224 12.9027C52.191 11.5525 52.854 10.3122 53.8274 9.33873C54.8009 8.36527 56.0411 7.70233 57.3914 7.43375C58.7416 7.16518 60.1412 7.30302 61.413 7.82985C62.6849 8.35669 63.772 9.24885 64.5369 10.3935C65.3017 11.5382 65.71 12.884 65.71 14.2606C65.71 16.1067 64.9766 17.8772 63.6712 19.1825C62.3659 20.4879 60.5954 21.2213 58.7493 21.2213ZM58.7493 10.7803C58.061 10.7803 57.3881 10.9844 56.8158 11.3669C56.2434 11.7493 55.7974 12.2928 55.5339 12.9288C55.2705 13.5647 55.2016 14.2645 55.3359 14.9396C55.4702 15.6147 55.8016 16.2349 56.2884 16.7216C56.7751 17.2083 57.3952 17.5398 58.0704 17.6741C58.7455 17.8084 59.4452 17.7394 60.0812 17.476C60.7171 17.2126 61.2607 16.7665 61.6431 16.1942C62.0255 15.6219 62.2296 14.949 62.2296 14.2606C62.2296 13.3376 61.863 12.4524 61.2103 11.7997C60.5576 11.147 59.6724 10.7803 58.7493 10.7803Z" fill="#FD9A30"/>
<path d="M61.2362 23.4608L75.5229 46.3195C75.7216 46.637 75.9823 46.9111 76.2893 47.1255C76.5964 47.3399 76.9436 47.4901 77.3101 47.5672L104.041 53.1949C104.538 53.2992 104.996 53.5375 105.368 53.8839C105.739 54.2303 106.009 54.6716 106.147 55.1601C106.286 55.6486 106.288 56.1657 106.154 56.6554C106.019 57.1452 105.754 57.5889 105.386 57.9385L85.9117 76.5199C85.5852 76.8316 85.3394 77.2179 85.1954 77.6456C85.0514 78.0733 85.0135 78.5297 85.0851 78.9753L89.2145 104.643C89.2955 105.147 89.2362 105.664 89.0431 106.137C88.85 106.61 88.5305 107.02 88.1195 107.324C87.7086 107.627 87.2221 107.812 86.7133 107.857C86.2045 107.903 85.693 107.808 85.2347 107.582L59.9816 95.1205C59.5984 94.9314 59.1769 94.833 58.7496 94.833C58.3223 94.833 57.9007 94.9314 57.5175 95.1205L32.2644 107.582C31.8062 107.808 31.2946 107.903 30.7858 107.857C30.277 107.812 29.7905 107.627 29.3796 107.324C28.9687 107.02 28.6492 106.61 28.456 106.137C28.2629 105.664 28.2036 105.147 28.2846 104.643L32.414 78.9753C32.4856 78.5297 32.4477 78.0733 32.3037 77.6456C32.1597 77.2179 31.9139 76.8316 31.5875 76.5199L12.1569 57.9786C11.79 57.6266 11.5264 57.1809 11.3949 56.6898C11.2633 56.1986 11.2687 55.6809 11.4106 55.1926C11.5524 54.7044 11.8252 54.2643 12.1994 53.9201C12.5736 53.5759 13.035 53.3407 13.5333 53.2401L41.8335 47.5794C42.2268 47.5009 42.5985 47.3383 42.9232 47.1029C43.2479 46.8674 43.5178 46.5646 43.7146 46.2151L56.4491 23.5757C56.6856 23.1545 57.0276 22.8021 57.4415 22.5531C57.8555 22.3041 58.3271 22.1671 58.81 22.1555C59.2929 22.1439 59.7705 22.2581 60.1959 22.487C60.6213 22.7159 60.9798 23.0515 61.2362 23.4608Z" fill="#FDB62F"/>
<path d="M43.088 47.3236L41.8333 47.5742L13.5331 53.2401C13.0391 53.3352 12.5807 53.564 12.2076 53.9015C11.8345 54.239 11.5611 54.6723 11.4171 55.1543L58.7494 68.2055L43.088 47.3236Z" fill="#FD9A30"/>
<path d="M76.151 47.3236L75.5228 46.3195L69.8081 37.175L61.2361 23.4591C60.9757 23.0399 60.6076 22.6984 60.1702 22.47C59.7328 22.2417 59.2421 22.1349 58.7494 22.1609V68.2055L76.151 47.3236Z" fill="#FD9A30"/>
<path d="M84.8517 77.5293L85.9115 76.52L91.0641 71.6023L105.386 57.9386C105.758 57.5875 106.025 57.1393 106.157 56.6447C106.288 56.15 106.279 55.6284 106.13 55.1387L58.7494 68.2055L84.8517 77.5293Z" fill="#FD9A30"/>
<path d="M58.7494 94.5114L65.5134 97.8508L85.2346 107.582C85.6879 107.809 86.1952 107.906 86.7005 107.863C87.2057 107.82 87.6891 107.637 88.0971 107.336L58.7494 68.2055V94.5114Z" fill="#FD9A30"/>
<path d="M32.6472 77.5293L28.2846 104.643C28.2095 105.095 28.2498 105.56 28.4019 105.992C28.554 106.425 28.8129 106.813 29.1547 107.119C35.7203 97.6559 58.7495 68.2055 58.7495 68.2055L32.6472 77.5293Z" fill="#FD9A30"/>
</g>
<defs>
<filter id="filter0_d_39_648" x="4.86374e-05" y="2.86102e-06" width="117.553" height="123.173" filterUnits="userSpaceOnUse" color-interpolation-filters="sRGB">
<feFlood flood-opacity="0" result="BackgroundImageFix"/>
<feColorMatrix in="SourceAlpha" type="matrix" values="0 0 0 0 0 0 0 0 0 0 0 0 0 0 0 0 0 0 127 0" result="hardAlpha"/>
<feOffset dy="4"/>
<feGaussianBlur stdDeviation="5.65"/>
<feComposite in2="hardAlpha" operator="out"/>
<feColorMatrix type="matrix" values="0 0 0 0 0 0 0 0 0 0 0 0 0 0 0 0 0 0 0.25 0"/>
<feBlend mode="normal" in2="BackgroundImageFix" result="effect1_dropShadow_39_648"/>
<feBlend mode="normal" in="SourceGraphic" in2="effect1_dropShadow_39_648" result="shape"/>
</filter>
</defs>
</svg>
