<svg width="116" height="124" viewBox="0 0 116 124" fill="none" xmlns="http://www.w3.org/2000/svg">
<g filter="url(#filter0_d_39_836)">
<path d="M16.1962 16.6413V77.4887C16.1962 81.5922 17.8263 85.5276 20.7279 88.4292C23.6295 91.3308 27.5649 92.9609 31.6684 92.9609H79.0836C81.5901 92.9609 84.072 92.467 86.3876 91.5075C88.7032 90.548 90.807 89.1416 92.5789 87.3687C94.3508 85.5959 95.756 83.4912 96.7142 81.1751C97.6724 78.859 98.1649 76.3768 98.1635 73.8703C98.1635 71.3652 97.6699 68.8846 96.7109 66.5703C95.7519 64.2561 94.3463 62.1534 92.5744 60.3825C90.8026 58.6117 88.6991 57.2073 86.3843 56.2496C84.0695 55.2919 81.5887 54.7997 79.0836 54.8011H56.3638V16.6413H16.1962Z" fill="#CCEBF7"/>
<path d="M59.4561 7.3H14.5212C12.7422 7.3 11.3 8.74216 11.3 10.5211V13.4202C11.3 15.1992 12.7422 16.6413 14.5212 16.6413H59.4561C61.2351 16.6413 62.6772 15.1992 62.6772 13.4202V10.5211C62.6772 8.74216 61.2351 7.3 59.4561 7.3Z" fill="#266882"/>
<path d="M36.1243 92.9286H31.0027V100.981H36.1243V92.9286Z" fill="#553F07"/>
<path d="M81.7141 92.9286H76.5925V100.981H81.7141V92.9286Z" fill="#553F07"/>
<path d="M17.0231 100.982H103.768L97.5838 107.155C97.2477 107.494 96.848 107.764 96.4077 107.948C95.9673 108.132 95.495 108.228 95.0176 108.229H17.0231V100.982Z" fill="#C4E8F4"/>
<path d="M44.6498 89.7183C44.453 89.7214 44.2626 89.6482 44.1185 89.5141C43.9744 89.38 43.8878 89.1954 43.8767 88.9989C43.8767 88.4835 43.7801 87.9252 43.7264 87.4742C43.7082 87.2684 43.7709 87.0636 43.9012 86.9032C44.0315 86.7429 44.2191 86.6396 44.4243 86.6152C44.6296 86.5998 44.8329 86.6635 44.9927 86.7933C45.1524 86.923 45.2564 87.1091 45.2833 87.3132C45.2833 87.8285 45.3799 88.3869 45.4229 88.8808C45.4378 89.0853 45.372 89.2876 45.2395 89.4442C45.107 89.6007 44.9184 89.6992 44.7142 89.7183H44.6498ZM44.0593 85.1013C43.8773 85.1002 43.7013 85.0366 43.5606 84.9213C43.4199 84.806 43.323 84.646 43.2862 84.4678C43.2003 83.9524 43.0929 83.4585 42.9748 82.9754C42.9299 82.7732 42.9668 82.5615 43.0774 82.3865C43.1881 82.2115 43.3635 82.0874 43.5653 82.0412C43.6648 82.0174 43.768 82.0135 43.8689 82.0297C43.9699 82.046 44.0666 82.0822 44.1535 82.1361C44.2403 82.19 44.3157 82.2607 44.375 82.3439C44.4344 82.4271 44.4767 82.5213 44.4995 82.621C44.6068 83.1257 44.725 83.6947 44.8216 84.1779C44.8402 84.278 44.8388 84.3809 44.8175 84.4805C44.7963 84.5801 44.7555 84.6745 44.6977 84.7583C44.6398 84.8421 44.5659 84.9137 44.4803 84.9688C44.3947 85.024 44.2991 85.0617 44.1988 85.0798L44.0593 85.1013ZM42.8996 80.581C42.7355 80.5803 42.5757 80.5282 42.4428 80.4319C42.3098 80.3355 42.2105 80.1999 42.1588 80.0441C42.0013 79.5574 41.8295 79.0849 41.6434 78.6268C41.5722 78.4343 41.5783 78.2217 41.6603 78.0335C41.7424 77.8454 41.8941 77.6963 42.0836 77.6175C42.1787 77.5794 42.2804 77.5606 42.3829 77.5621C42.4853 77.5636 42.5865 77.5855 42.6804 77.6265C42.7743 77.6674 42.8591 77.7267 42.9299 77.8007C43.0008 77.8747 43.0562 77.9621 43.0929 78.0577C43.2862 78.5409 43.4687 79.0456 43.6405 79.5609C43.6724 79.6575 43.6849 79.7594 43.6773 79.8609C43.6697 79.9623 43.6422 80.0612 43.5963 80.152C43.5504 80.2427 43.4871 80.3236 43.4099 80.3898C43.3327 80.4561 43.2433 80.5064 43.1466 80.538C43.0813 80.563 43.0124 80.5775 42.9426 80.581H42.8996ZM41.0851 76.2861C40.9445 76.286 40.8065 76.2481 40.6856 76.1763C40.5647 76.1045 40.4653 76.0015 40.3979 75.8781C40.1509 75.4272 39.904 74.9869 39.6463 74.5682C39.5389 74.3914 39.5057 74.1794 39.554 73.9782C39.6022 73.7771 39.7281 73.6032 39.904 73.4945C39.9911 73.4399 40.0883 73.4032 40.1897 73.3866C40.2912 73.37 40.395 73.3738 40.495 73.3978C40.595 73.4218 40.6891 73.4655 40.772 73.5263C40.8549 73.5872 40.9248 73.6639 40.9777 73.7522C41.2569 74.2031 41.5253 74.6648 41.783 75.1372C41.8793 75.323 41.8995 75.5389 41.8394 75.7394C41.7793 75.9398 41.6435 76.1089 41.4609 76.211C41.3564 76.2607 41.2434 76.2898 41.128 76.2969L41.0851 76.2861ZM38.5082 72.41C38.3929 72.4082 38.2794 72.3813 38.1756 72.3313C38.0718 72.2812 37.9801 72.2092 37.9069 72.1201C37.5848 71.7228 37.2519 71.347 36.9191 71.0464C36.841 70.9732 36.7788 70.8849 36.7362 70.7867C36.6936 70.6886 36.6715 70.5828 36.6714 70.4758C36.6712 70.3688 36.6929 70.263 36.7352 70.1647C36.7775 70.0664 36.8395 69.9779 36.9173 69.9045C36.9951 69.8311 37.0871 69.7744 37.1877 69.7379C37.2882 69.7013 37.3952 69.6858 37.502 69.6922C37.6088 69.6986 37.7131 69.7268 37.8086 69.775C37.9041 69.8232 37.9887 69.8905 38.0572 69.9727C38.4115 70.3592 38.7658 70.7672 39.1309 71.186C39.2565 71.3436 39.3156 71.5441 39.2955 71.7447C39.2755 71.9452 39.1779 72.13 39.0235 72.2597C38.8871 72.3621 38.7217 72.4185 38.5511 72.4208L38.5082 72.41ZM35.2011 69.1245C35.0247 69.1265 34.8534 69.0656 34.7179 68.9527C34.3207 68.6413 33.9127 68.3406 33.5154 68.0615C33.4315 68.0037 33.3598 67.9299 33.3044 67.8444C33.249 67.7589 33.211 67.6633 33.1926 67.5631C33.1741 67.4629 33.1756 67.36 33.1969 67.2604C33.2182 67.1607 33.2589 67.0663 33.3167 66.9824C33.3746 66.8985 33.4483 66.8268 33.5338 66.7714C33.6194 66.716 33.7149 66.678 33.8151 66.6596C33.9153 66.6411 34.0182 66.6426 34.1178 66.6639C34.2175 66.6852 34.3119 66.7259 34.3958 66.7838C34.8361 67.0844 35.2655 67.4065 35.695 67.7394C35.8487 67.869 35.9466 68.0528 35.9686 68.2526C35.9905 68.4525 35.9349 68.6531 35.8131 68.8131C35.7466 68.9041 35.6614 68.9798 35.5633 69.0354C35.4652 69.0909 35.3563 69.1249 35.2441 69.1352L35.2011 69.1245ZM31.2821 66.6012C31.1599 66.6023 31.0389 66.5767 30.9277 66.5261C30.4768 66.2898 30.0151 66.0751 29.5641 65.8818C29.4588 65.8493 29.3615 65.7948 29.2786 65.7221C29.1957 65.6493 29.1291 65.5599 29.0832 65.4596C29.0372 65.3594 29.0129 65.2506 29.0119 65.1403C29.0109 65.03 29.0331 64.9208 29.0772 64.8197C29.1213 64.7186 29.1862 64.628 29.2677 64.5537C29.3492 64.4794 29.4455 64.4232 29.5502 64.3886C29.655 64.3541 29.7658 64.342 29.8755 64.3533C29.9852 64.3645 30.0913 64.3988 30.1869 64.4538C30.6736 64.6614 31.1568 64.8869 31.6364 65.1302C31.7966 65.2064 31.9258 65.3353 32.0022 65.4954C32.0786 65.6555 32.0977 65.837 32.0561 66.0095C32.0146 66.182 31.915 66.3349 31.7741 66.4427C31.6331 66.5504 31.4594 66.6064 31.2821 66.6012ZM26.9872 64.8725C26.916 64.883 26.8437 64.883 26.7725 64.8725L25.3229 64.4645C25.1423 64.3983 24.9924 64.2681 24.9016 64.0985C24.8108 63.9289 24.7856 63.7318 24.8307 63.5448C24.8758 63.3579 24.988 63.194 25.1461 63.0844C25.3042 62.9748 25.4971 62.9272 25.688 62.9506C26.1927 63.0687 26.7617 63.2083 27.2342 63.3586C27.432 63.4206 27.5978 63.5575 27.6961 63.7401C27.7944 63.9226 27.8174 64.1364 27.7603 64.3357C27.7088 64.4988 27.6054 64.6406 27.4658 64.7395C27.3263 64.8384 27.1582 64.8889 26.9872 64.8833V64.8725ZM22.4239 63.9062H22.3273C21.7904 63.831 21.2536 63.7774 20.8026 63.7344C20.701 63.7263 20.6019 63.6981 20.5112 63.6516C20.4205 63.605 20.3399 63.541 20.274 63.4632C20.2081 63.3853 20.1583 63.2952 20.1274 63.198C20.0965 63.1008 20.0851 62.9985 20.094 62.8969C20.1157 62.6938 20.2148 62.5068 20.3708 62.3748C20.5267 62.2429 20.7275 62.1761 20.9315 62.1883C21.4361 62.1883 22.0052 62.2849 22.5206 62.3601C22.7256 62.3729 22.9171 62.4666 23.0531 62.6207C23.189 62.7747 23.2581 62.9764 23.2453 63.1814C23.2325 63.3865 23.1388 63.578 22.9847 63.7139C22.8307 63.8499 22.629 63.919 22.4239 63.9062Z" fill="#266882"/>
<path d="M44.8536 55.9714C47.0595 55.9714 48.8478 54.1832 48.8478 51.9772C48.8478 49.7713 47.0595 47.983 44.8536 47.983C42.6476 47.983 40.8594 49.7713 40.8594 51.9772C40.8594 54.1832 42.6476 55.9714 44.8536 55.9714Z" fill="#266882"/>
<path d="M44.8536 43.5164C47.0595 43.5164 48.8478 41.7281 48.8478 39.5222C48.8478 37.3162 47.0595 35.528 44.8536 35.528C42.6476 35.528 40.8594 37.3162 40.8594 39.5222C40.8594 41.7281 42.6476 43.5164 44.8536 43.5164Z" fill="#266882"/>
<path d="M44.8536 31.0613C47.0595 31.0613 48.8478 29.273 48.8478 27.0671C48.8478 24.8611 47.0595 23.0728 44.8536 23.0728C42.6476 23.0728 40.8594 24.8611 40.8594 27.0671C40.8594 29.273 42.6476 31.0613 44.8536 31.0613Z" fill="#266882"/>
<path d="M56.6432 29.4078H47.9676C47.6476 29.4295 47.3266 29.3852 47.0244 29.2777C46.7223 29.1701 46.4454 29.0016 46.2111 28.7826C45.9767 28.5637 45.7899 28.2989 45.6622 28.0047C45.5344 27.7105 45.4685 27.3932 45.4685 27.0724C45.4685 26.7517 45.5344 26.4344 45.6622 26.1402C45.7899 25.846 45.9767 25.5812 46.2111 25.3622C46.4454 25.1432 46.7223 24.9747 47.0244 24.8672C47.3266 24.7597 47.6476 24.7154 47.9676 24.7371H56.6432C56.9632 24.7154 57.2843 24.7597 57.5865 24.8672C57.8886 24.9747 58.1655 25.1432 58.3998 25.3622C58.6342 25.5812 58.821 25.846 58.9487 26.1402C59.0765 26.4344 59.1424 26.7517 59.1424 27.0724C59.1424 27.3932 59.0765 27.7105 58.9487 28.0047C58.821 28.2989 58.6342 28.5637 58.3998 28.7826C58.1655 29.0016 57.8886 29.1701 57.5865 29.2777C57.2843 29.3852 56.9632 29.4295 56.6432 29.4078Z" fill="#F1EDD8"/>
<path d="M56.6432 41.8629H47.9676C47.6476 41.8846 47.3266 41.8403 47.0244 41.7327C46.7223 41.6252 46.4454 41.4567 46.2111 41.2377C45.9767 41.0188 45.7899 40.754 45.6622 40.4598C45.5344 40.1656 45.4685 39.8483 45.4685 39.5275C45.4685 39.2068 45.5344 38.8895 45.6622 38.5953C45.7899 38.3011 45.9767 38.0363 46.2111 37.8173C46.4454 37.5983 46.7223 37.4298 47.0244 37.3223C47.3266 37.2148 47.6476 37.1705 47.9676 37.1922H56.6432C56.9632 37.1705 57.2843 37.2148 57.5865 37.3223C57.8886 37.4298 58.1655 37.5983 58.3998 37.8173C58.6342 38.0363 58.821 38.3011 58.9487 38.5953C59.0765 38.8895 59.1424 39.2068 59.1424 39.5275C59.1424 39.8483 59.0765 40.1656 58.9487 40.4598C58.821 40.754 58.6342 41.0188 58.3998 41.2377C58.1655 41.4567 57.8886 41.6252 57.5865 41.7327C57.2843 41.8403 56.9632 41.8846 56.6432 41.8629Z" fill="#F1EDD8"/>
<path d="M56.6432 54.3179H47.9676C47.6476 54.3396 47.3266 54.2954 47.0244 54.1878C46.7223 54.0803 46.4454 53.9118 46.2111 53.6928C45.9767 53.4738 45.7899 53.209 45.6622 52.9148C45.5344 52.6206 45.4685 52.3033 45.4685 51.9826C45.4685 51.6619 45.5344 51.3446 45.6622 51.0504C45.7899 50.7562 45.9767 50.4914 46.2111 50.2724C46.4454 50.0534 46.7223 49.8849 47.0244 49.7774C47.3266 49.6699 47.6476 49.6256 47.9676 49.6473H56.6432C56.9632 49.6256 57.2843 49.6699 57.5865 49.7774C57.8886 49.8849 58.1655 50.0534 58.3998 50.2724C58.6342 50.4914 58.821 50.7562 58.9487 51.0504C59.0765 51.3446 59.1424 51.6619 59.1424 51.9826C59.1424 52.3033 59.0765 52.6206 58.9487 52.9148C58.821 53.209 58.6342 53.4738 58.3998 53.6928C58.1655 53.9118 57.8886 54.0803 57.5865 54.1878C57.2843 54.2954 56.9632 54.3396 56.6432 54.3179Z" fill="#F1EDD8"/>
<path d="M76.5926 54.8011V87.8178L72.491 85.6811V54.8011H76.5926Z" fill="#266882"/>
</g>
<defs>
<filter id="filter0_d_39_836" x="4.86374e-05" y="2.86102e-06" width="115.068" height="123.529" filterUnits="userSpaceOnUse" color-interpolation-filters="sRGB">
<feFlood flood-opacity="0" result="BackgroundImageFix"/>
<feColorMatrix in="SourceAlpha" type="matrix" values="0 0 0 0 0 0 0 0 0 0 0 0 0 0 0 0 0 0 127 0" result="hardAlpha"/>
<feOffset dy="4"/>
<feGaussianBlur stdDeviation="5.65"/>
<feComposite in2="hardAlpha" operator="out"/>
<feColorMatrix type="matrix" values="0 0 0 0 0 0 0 0 0 0 0 0 0 0 0 0 0 0 0.25 0"/>
<feBlend mode="normal" in2="BackgroundImageFix" result="effect1_dropShadow_39_836"/>
<feBlend mode="normal" in="SourceGraphic" in2="effect1_dropShadow_39_836" result="shape"/>
</filter>
</defs>
</svg>
