<svg width="124" height="124" viewBox="0 0 124 124" fill="none" xmlns="http://www.w3.org/2000/svg">
<g filter="url(#filter0_d_39_556)">
<path d="M50.3544 63.9543L11.3 103.009L16.5205 108.229L55.5749 69.1748C53.656 67.623 51.9061 65.8732 50.3544 63.9543Z" fill="#E3E3E1"/>
<path d="M52.5018 42.3572C52.6863 42.1971 52.8847 42.0614 53.0743 41.9117C53.1071 37.6356 54.2664 33.4437 56.4355 29.7583C58.6046 26.073 61.7068 23.0246 65.4294 20.9202C65.2015 20.8297 64.984 20.7253 64.7508 20.6453C60.5592 19.3142 56.188 18.6346 51.7901 18.6302C47.6519 23.13 44.7757 28.643 43.4526 34.6114C42.1295 40.5799 42.4064 46.7919 44.2552 52.6189C46.4611 48.7953 49.2425 45.3342 52.5018 42.3572Z" fill="#7EA82D"/>
<path d="M89.7708 21.1256C93.4283 23.2717 96.4614 26.3365 98.5694 30.0162C100.677 33.6958 101.787 37.8625 101.788 42.1032C101.788 42.1676 101.78 42.2302 101.778 42.2946C101.968 42.145 102.166 42.0092 102.35 41.8491C105.613 38.8711 108.396 35.4081 110.604 31.5822C108.751 25.7646 105.402 20.536 100.893 16.4201C96.3829 12.3042 90.871 9.44538 84.9088 8.13011C87.1137 11.9486 88.7167 16.0842 89.6612 20.3913C89.7169 20.6366 89.7343 20.8733 89.7708 21.1256Z" fill="#7EA82D"/>
<path d="M110.604 31.5874C108.396 35.4133 105.613 38.8763 102.35 41.8543C102.166 42.0144 101.968 42.1502 101.778 42.2998C101.745 46.5759 100.586 50.7679 98.4166 54.4532C96.2476 58.1385 93.1454 61.1869 89.4227 63.2913C89.6507 63.3818 89.8682 63.4862 90.1014 63.5663C94.293 64.8974 98.6642 65.577 103.062 65.5814C107.2 61.0816 110.076 55.5685 111.4 49.6001C112.723 43.6317 112.446 37.4197 110.597 31.5926L110.604 31.5874Z" fill="#DD4A43"/>
<path d="M65.0814 63.0808C61.4239 60.9346 58.3908 57.8698 56.2828 54.1902C54.1749 50.5106 53.0652 46.3439 53.0639 42.1032C53.0639 42.0388 53.0639 41.9761 53.0744 41.9118C52.8847 42.0614 52.6863 42.1971 52.5019 42.3572C49.2397 45.3353 46.4558 48.7982 44.2483 52.6242C46.1012 58.4417 49.4501 63.6703 53.9597 67.7863C58.4693 71.9022 63.9813 74.761 69.9434 76.0763C67.7393 72.2574 66.1364 68.1219 65.1911 63.8151C65.1354 63.5698 65.118 63.3331 65.0814 63.0808Z" fill="#DD4A43"/>
<path d="M89.4331 63.2861C85.7177 65.404 81.5078 66.5007 77.2313 66.4646C72.9548 66.4285 68.764 65.261 65.0848 63.0808C65.1214 63.3261 65.1388 63.5698 65.1875 63.8151C66.1339 68.1221 67.738 72.2576 69.9434 76.0763C75.9014 77.4056 82.1051 77.1344 87.9243 75.2902C93.7436 73.4461 98.9712 70.0945 103.076 65.5762C98.678 65.5718 94.3069 64.8922 90.1152 63.5611C89.8751 63.481 89.6576 63.3766 89.4331 63.2861Z" fill="#7EA82D"/>
<path d="M67.3804 51.7245C65.6861 49.9642 64.4878 47.7869 63.9071 45.4137C63.3265 43.0405 63.384 40.5559 64.0741 38.2122C60.0998 38.185 56.2306 39.4872 53.0815 41.9118C53.0815 41.9761 53.071 42.0388 53.071 42.1032C53.0723 46.3438 54.182 50.5105 56.29 54.1902C58.3979 57.8698 61.431 60.9346 65.0886 63.0808C64.5664 59.1457 65.373 55.149 67.3804 51.7245Z" fill="#7EA82D"/>
<path d="M64.0669 38.2121C64.7517 35.8681 66.0411 33.7455 67.8057 32.0573C69.5702 30.3692 71.7477 29.1749 74.1197 28.5943C72.1571 25.137 69.0943 22.4356 65.419 20.9202C61.6963 23.0246 58.5941 26.073 56.425 29.7583C54.256 33.4436 53.0966 37.6356 53.0638 41.9117C56.2158 39.485 60.0891 38.1826 64.0669 38.2121Z" fill="#DD4A43"/>
<path d="M74.1196 28.5943C76.4903 28.0012 78.9761 28.0486 81.3225 28.7316C83.6689 29.4147 85.7917 30.7089 87.4736 32.4819C89.4831 29.0581 90.2921 25.0614 89.7723 21.1256C86.0925 18.9443 81.9008 17.7763 77.6233 17.7403C73.3457 17.7042 69.1349 18.8014 65.4188 20.9203C69.0942 22.4356 72.157 25.137 74.1196 28.5943Z" fill="#7EA82D"/>
<path d="M90.7853 45.9942C90.1004 48.3382 88.811 50.4608 87.0465 52.149C85.282 53.8371 83.1044 55.0314 80.7324 55.612C82.695 59.0693 85.7578 61.7707 89.4332 63.2861C93.1559 61.1817 96.258 58.1333 98.4271 54.448C100.596 50.7627 101.756 46.5707 101.788 42.2946C98.6364 44.7213 94.7631 46.0237 90.7853 45.9942Z" fill="#7EA82D"/>
<path d="M80.7323 55.612C78.3616 56.2052 75.8759 56.1578 73.5295 55.4747C71.1831 54.7917 69.0603 53.4974 67.3784 51.7245C65.3686 55.1482 64.5596 59.145 65.0796 63.0808C68.7588 65.261 72.9496 66.4285 77.2261 66.4646C81.5026 66.5006 85.7125 65.404 89.4279 63.2861C85.7544 61.7697 82.6936 59.0684 80.7323 55.612Z" fill="#DD4A43"/>
<path d="M89.7708 21.1256C90.2906 25.0614 89.4816 29.058 87.472 32.4818C89.1663 34.2422 90.3646 36.4195 90.9453 38.7926C91.5259 41.1658 91.4684 43.6504 90.7783 45.9941C94.7526 46.0213 98.6218 44.7191 101.771 42.2946C101.771 42.2302 101.781 42.1675 101.781 42.1032C101.781 37.8631 100.672 33.6969 98.5655 30.0173C96.4587 26.3377 93.427 23.2726 89.7708 21.1256Z" fill="#DD4A43"/>
<path d="M76.7404 41.6577C76.9753 41.7986 77.1981 41.9553 77.426 42.1032C77.44 41.83 77.4452 41.5568 77.4695 41.287C77.5276 36.8303 76.3695 32.442 74.1197 28.5943C71.7481 29.1752 69.5709 30.3696 67.8067 32.0577C66.0425 33.7459 64.7533 35.8684 64.0686 38.2122C68.5279 38.1863 72.908 39.3776 76.7404 41.6577Z" fill="#7EA82D"/>
<path d="M76.6987 42.4738C76.9371 42.3398 77.1842 42.2267 77.426 42.1032C77.1981 41.9553 76.9632 41.8126 76.7404 41.6577C72.908 39.3776 68.5262 38.1863 64.0669 38.2122C63.3768 40.5559 63.3193 43.0405 63.9 45.4137C64.4806 47.7869 65.6789 49.9641 67.3732 51.7245C69.582 47.8498 72.8063 44.6514 76.6987 42.4738Z" fill="#DD4A43"/>
<path d="M78.1117 42.5487C77.8768 42.4077 77.654 42.2511 77.4261 42.1032C77.4122 42.3764 77.4069 42.6496 77.3826 42.9193C77.3245 47.3761 78.4826 51.7643 80.7324 55.612C83.1041 55.0312 85.2812 53.8367 87.0454 52.1486C88.8096 50.4605 90.0988 48.338 90.7835 45.9942C86.3242 46.0201 81.9441 44.8288 78.1117 42.5487Z" fill="#DD4A43"/>
<path d="M65.4191 20.9202C69.1345 18.8023 73.3444 17.7057 77.6209 17.7418C81.8974 17.7778 86.0882 18.9453 89.7673 21.1256C89.7308 20.8802 89.7134 20.6366 89.6647 20.3912C88.7191 16.084 87.1149 11.9484 84.9088 8.13008C78.9508 6.80071 72.7471 7.0719 66.9278 8.9161C61.1086 10.7603 55.881 14.1118 51.7762 18.6302C56.1741 18.6346 60.5453 19.3142 64.7369 20.6453C64.9771 20.7253 65.1946 20.8297 65.4191 20.9202Z" fill="#DD4A43"/>
<path d="M77.4259 28.1819C76.3113 28.1865 75.2012 28.325 74.1196 28.5944C76.37 32.4419 77.5287 36.8301 77.4712 41.2871C77.4712 41.5603 77.4416 41.83 77.4277 42.1032C77.6696 41.9796 77.9097 41.8474 78.1551 41.7325C82.0448 39.5539 85.2666 36.3556 87.4736 32.4819C86.1773 31.1221 84.6183 30.0397 82.8911 29.3006C81.1639 28.5615 79.3046 28.1809 77.4259 28.1819Z" fill="#DD4A43"/>
<path d="M78.1535 41.7325C77.9151 41.8665 77.668 41.9796 77.4261 42.1032C77.6541 42.2511 77.889 42.3938 78.1118 42.5486C81.9442 44.8287 86.326 46.02 90.7853 45.9941C91.4753 43.6504 91.5329 41.1658 90.9522 38.7926C90.3715 36.4195 89.1733 34.2422 87.479 32.4818C85.2702 36.3565 82.0458 39.5549 78.1535 41.7325Z" fill="#7EA82D"/>
<path d="M77.3807 42.9193C77.3807 42.6461 77.4103 42.3764 77.4242 42.1032C77.1823 42.2267 76.9422 42.359 76.6968 42.4738C72.8071 44.6524 69.5853 47.8508 67.3783 51.7245C69.0602 53.4974 71.183 54.7917 73.5294 55.4747C75.8758 56.1578 78.3615 56.2052 80.7323 55.612C78.4819 51.7645 77.3232 47.3762 77.3807 42.9193Z" fill="#7EA82D"/>
</g>
<defs>
<filter id="filter0_d_39_556" x="4.86374e-05" y="2.86102e-06" width="123.522" height="123.529" filterUnits="userSpaceOnUse" color-interpolation-filters="sRGB">
<feFlood flood-opacity="0" result="BackgroundImageFix"/>
<feColorMatrix in="SourceAlpha" type="matrix" values="0 0 0 0 0 0 0 0 0 0 0 0 0 0 0 0 0 0 127 0" result="hardAlpha"/>
<feOffset dy="4"/>
<feGaussianBlur stdDeviation="5.65"/>
<feComposite in2="hardAlpha" operator="out"/>
<feColorMatrix type="matrix" values="0 0 0 0 0 0 0 0 0 0 0 0 0 0 0 0 0 0 0.25 0"/>
<feBlend mode="normal" in2="BackgroundImageFix" result="effect1_dropShadow_39_556"/>
<feBlend mode="normal" in="SourceGraphic" in2="effect1_dropShadow_39_556" result="shape"/>
</filter>
</defs>
</svg>
