<svg width="111" height="124" viewBox="0 0 111 124" fill="none" xmlns="http://www.w3.org/2000/svg">
<g filter="url(#filter0_d_39_405)">
<path d="M57.5458 20.7574H54.1815V94.7719H57.5458V20.7574Z" fill="#87CED9"/>
<path d="M86.8795 37.9704L22.7793 74.9712L24.4612 77.8849L88.5614 40.8841L86.8795 37.9704Z" fill="#87CED9"/>
<path d="M24.0236 37.44L22.3415 40.3535L86.4399 77.3608L88.122 74.4472L24.0236 37.44Z" fill="#87CED9"/>
<path d="M55.8635 22.4396C55.5313 22.4397 55.2064 22.3413 54.9299 22.157L49.8835 18.7927C49.6532 18.639 49.4644 18.4309 49.3338 18.1867C49.2032 17.9426 49.1349 17.67 49.1349 17.3931V12.3467C49.1349 12.0698 49.2032 11.7972 49.3338 11.5531C49.4644 11.3089 49.6532 11.1008 49.8835 10.9472L54.9299 7.58286C55.2064 7.39843 55.5312 7.3 55.8635 7.3C56.1958 7.3 56.5207 7.39843 56.7971 7.58286L61.8436 10.9472C62.0739 11.1008 62.2627 11.3089 62.3933 11.5531C62.5239 11.7972 62.5922 12.0698 62.5921 12.3467V17.3931C62.5922 17.67 62.5239 17.9426 62.3933 18.1867C62.2627 18.4309 62.0739 18.639 61.8436 18.7927L56.7971 22.157C56.5207 22.3413 56.1958 22.4397 55.8635 22.4396ZM52.4992 16.4932L55.8635 18.7389L59.2278 16.4966V13.2466L55.8635 11.001L52.4992 13.2466V16.4932Z" fill="#A7E1EB"/>
<path d="M55.8635 108.229C55.5313 108.229 55.2064 108.131 54.9299 107.946L49.8835 104.582C49.6532 104.429 49.4644 104.22 49.3338 103.976C49.2032 103.732 49.1349 103.46 49.1349 103.183V98.1362C49.1349 97.8593 49.2032 97.5867 49.3338 97.3426C49.4644 97.0985 49.6532 96.8903 49.8835 96.7367L54.9299 93.3724C55.2064 93.1879 55.5312 93.0895 55.8635 93.0895C56.1958 93.0895 56.5207 93.1879 56.7971 93.3724L61.8436 96.7367C62.0739 96.8903 62.2627 97.0985 62.3933 97.3426C62.5239 97.5867 62.5922 97.8593 62.5921 98.1362V103.183C62.5922 103.46 62.5239 103.732 62.3933 103.976C62.2627 104.22 62.0739 104.429 61.8436 104.582L56.7971 107.946C56.5207 108.131 56.1958 108.229 55.8635 108.229ZM52.4992 102.283L55.8635 104.528L59.2278 102.286V99.0395L55.8635 96.7905L52.4992 99.0328V102.283Z" fill="#A7E1EB"/>
<path d="M55.8636 32.5325C55.4698 32.5332 55.0882 32.3957 54.7853 32.1439L44.6924 23.7332L46.849 21.146L55.8636 28.6635L64.8782 21.1494L67.0347 23.7365L56.9418 32.1473C56.6385 32.3978 56.257 32.5341 55.8636 32.5325Z" fill="#A7E1EB"/>
<path d="M64.8782 94.3833L55.8636 86.8658L46.849 94.38L44.6924 91.7928L54.7853 83.3821C55.0878 83.1295 55.4695 82.9911 55.8636 82.9911C56.2577 82.9911 56.6393 83.1295 56.9418 83.3821L67.0347 91.7928L64.8782 94.3833Z" fill="#A7E1EB"/>
<path d="M18.8564 86.6976C18.5984 86.6994 18.3435 86.6419 18.1112 86.5294L12.6729 83.8379C12.375 83.6908 12.1274 83.4588 11.9613 83.1711C11.7951 82.8834 11.7179 82.5529 11.7393 82.2214L12.1312 76.1657C12.1499 75.8895 12.2364 75.6222 12.3831 75.3874C12.5298 75.1527 12.7322 74.9577 12.9723 74.82L17.3459 72.2967C17.5857 72.1584 17.856 72.0815 18.1327 72.0727C18.4094 72.0639 18.684 72.1235 18.9321 72.2463L24.3688 74.9377C24.6667 75.0849 24.9143 75.3169 25.0804 75.6046C25.2466 75.8923 25.3238 76.2227 25.3024 76.5542L24.9122 82.61C24.8935 82.8862 24.807 83.1535 24.6603 83.3883C24.5136 83.623 24.3112 83.8179 24.0711 83.9557L19.6975 86.4789C19.4411 86.6242 19.1511 86.6996 18.8564 86.6976ZM15.1759 81.3147L18.8009 83.1062L21.6101 81.4846L21.8708 77.4475L18.2475 75.6526L15.4366 77.2776L15.1759 81.3147Z" fill="#A7E1EB"/>
<path d="M93.1567 43.8029C92.8987 43.8047 92.6438 43.7471 92.4115 43.6347L86.9732 40.9432C86.6753 40.7961 86.4277 40.564 86.2615 40.2763C86.0954 39.9886 86.0182 39.6582 86.0396 39.3267L86.4315 33.2709C86.4502 32.9947 86.5367 32.7274 86.6834 32.4927C86.8301 32.2579 87.0325 32.063 87.2726 31.9252L91.6462 29.402C91.886 29.2637 92.1563 29.1867 92.433 29.1779C92.7097 29.1691 92.9843 29.2288 93.2324 29.3515L98.6691 32.043C98.967 32.1901 99.2146 32.4222 99.3807 32.7099C99.5469 32.9976 99.6241 33.328 99.6027 33.6595L99.2125 39.7153C99.1938 39.9915 99.1073 40.2588 98.9606 40.4935C98.8139 40.7283 98.6115 40.9232 98.3714 41.061L93.9978 43.5842C93.7414 43.7295 93.4514 43.8049 93.1567 43.8029ZM89.4712 38.42L93.0962 40.2115L95.8986 38.5882L96.1594 34.5511L92.536 32.7613L89.7252 34.3845L89.4712 38.42Z" fill="#A7E1EB"/>
<path d="M31.782 84.6202L28.4665 84.0449L30.4632 72.4818L19.4485 68.4312L20.6075 65.2738L32.9393 69.8156C33.3093 69.9512 33.6199 70.2125 33.8169 70.5537C34.014 70.8949 34.085 71.2945 34.0176 71.6828L31.782 84.6202Z" fill="#A7E1EB"/>
<path d="M90.7312 50.5853L78.3977 46.0435C78.0283 45.9076 77.7184 45.6465 77.5217 45.3056C77.325 44.9648 77.254 44.5657 77.3211 44.178L79.56 31.2254L82.8755 31.8007L80.8738 43.3638L91.8902 47.4144L90.7312 50.5853Z" fill="#A7E1EB"/>
<path d="M92.0432 86.1627C91.7479 86.1627 91.4578 86.0849 91.2021 85.9373L86.8285 83.4141C86.5884 83.2763 86.3861 83.0814 86.2393 82.8466C86.0926 82.6119 86.0061 82.3445 85.9875 82.0683L85.5989 76.0126C85.5773 75.6813 85.6543 75.351 85.8202 75.0633C85.986 74.7756 86.2333 74.5435 86.5308 74.3961L91.9675 71.7046C92.2156 71.5819 92.4902 71.5222 92.767 71.531C93.0437 71.5398 93.3139 71.6168 93.5538 71.7551L97.9273 74.2783C98.1674 74.4161 98.3698 74.611 98.5165 74.8458C98.6633 75.0805 98.7498 75.3478 98.7684 75.624L99.157 81.6798C99.1785 82.0111 99.1016 82.3414 98.9357 82.6291C98.7699 82.9168 98.5226 83.1489 98.2251 83.2963L92.7884 85.9877C92.557 86.1033 92.3018 86.1632 92.0432 86.1627ZM89.2929 80.948L92.1037 82.5713L95.7305 80.7815L95.4714 76.7443L92.6605 75.1211L89.0372 76.9126L89.2929 80.948Z" fill="#A7E1EB"/>
<path d="M17.7478 43.2679C17.4526 43.2679 17.1625 43.1902 16.9068 43.0425L12.5332 40.5193C12.2931 40.3815 12.0907 40.1866 11.944 39.9519C11.7973 39.7171 11.7108 39.4498 11.6921 39.1736L11.3035 33.1179C11.282 32.7865 11.359 32.4562 11.5248 32.1685C11.6906 31.8809 11.9379 31.6487 12.2354 31.5013L17.6721 28.8099C17.9203 28.6871 18.1949 28.6275 18.4716 28.6363C18.7483 28.6451 19.0186 28.7221 19.2584 28.8604L23.632 31.3836C23.8721 31.5214 24.0745 31.7163 24.2212 31.951C24.3679 32.1858 24.4544 32.4531 24.4731 32.7293L24.8616 38.785C24.8832 39.1164 24.8062 39.4467 24.6404 39.7344C24.4745 40.022 24.2273 40.2542 23.9297 40.4016L18.493 43.093C18.2617 43.2086 18.0065 43.2685 17.7478 43.2679ZM14.9975 38.0533L17.8084 39.6766L21.4317 37.8851L21.1727 33.8479L18.3618 32.2246L14.7385 34.0195L14.9975 38.0533Z" fill="#A7E1EB"/>
<path d="M79.121 84.0886L76.8837 71.1361C76.8171 70.7485 76.8882 70.3499 77.0849 70.0094C77.2816 69.6689 77.5913 69.4081 77.9603 69.2722L90.2905 64.7304L91.4528 67.8878L80.4364 71.9401L82.4416 83.5183L79.121 84.0886Z" fill="#A7E1EB"/>
<path d="M20.1752 50.0571L19.0129 46.8997L30.0293 42.8491L28.0292 31.2826L31.3447 30.7107L33.582 43.6632C33.6491 44.051 33.5781 44.45 33.3814 44.7909C33.1847 45.1317 32.8747 45.3928 32.5054 45.5287L20.1752 50.0571Z" fill="#A7E1EB"/>
<path d="M39.0421 86.3611C38.8053 86.3612 38.5711 86.3113 38.3549 86.2146C38.1387 86.1179 37.9453 85.9766 37.7875 85.8001C37.6296 85.6235 37.5109 85.4156 37.4389 85.1899C37.367 84.9643 37.3435 84.726 37.37 84.4906L39.4004 66.5286L23.2165 59.2954C22.9218 59.1637 22.6713 58.95 22.4947 58.6798C22.3182 58.4097 22.2231 58.0944 22.2207 57.7717C22.2184 57.4489 22.309 57.1324 22.4817 56.8597C22.6544 56.587 22.9018 56.3698 23.1946 56.2339L39.8344 48.5128L39.0421 30.926C39.0279 30.6114 39.1024 30.2991 39.257 30.0247C39.4115 29.7503 39.64 29.5248 39.9165 29.3739C40.1929 29.223 40.5061 29.1527 40.8205 29.171C41.1349 29.1894 41.4378 29.2956 41.6948 29.4777L55.8636 39.5117L70.0306 29.4777C70.294 29.2884 70.6065 29.1794 70.9305 29.1637C71.2544 29.148 71.576 29.2262 71.8565 29.3891C72.137 29.5519 72.3644 29.7923 72.5114 30.0814C72.6584 30.3705 72.7187 30.6959 72.685 31.0185L71.05 48.279L88.5225 56.2339C88.8186 56.369 89.0693 56.5872 89.2439 56.8619C89.4185 57.1367 89.5097 57.4562 89.5063 57.7818C89.5029 58.1073 89.4051 58.4249 89.2248 58.6959C89.0445 58.967 88.7894 59.1799 88.4905 59.3089L71.3006 66.7187L72.68 84.5495C72.7046 84.868 72.6379 85.187 72.4878 85.4691C72.3378 85.7511 72.1104 85.9846 71.8325 86.1422C71.5546 86.2998 71.2375 86.375 70.9184 86.3589C70.5993 86.3429 70.2913 86.2363 70.0306 86.0516L55.8148 75.9823L39.9454 86.097C39.6756 86.2692 39.3622 86.3609 39.0421 86.3611ZM27.9618 57.7344L41.8967 63.9583C42.2227 64.1039 42.494 64.3494 42.6712 64.6594C42.8484 64.9694 42.9224 65.3277 42.8824 65.6825L41.1095 81.3652L54.9603 72.5373C55.242 72.3577 55.5709 72.2661 55.905 72.2742C56.239 72.2823 56.5631 72.3897 56.8358 72.5827L69.0499 81.234L67.8539 65.7801C67.8269 65.4307 67.9096 65.0816 68.0905 64.7816C68.2715 64.4815 68.5416 64.2455 68.8632 64.1063L83.6661 57.7142L68.5503 50.8275C68.2335 50.6826 67.9696 50.443 67.7948 50.1417C67.62 49.8403 67.5431 49.4922 67.5747 49.1453L68.9759 34.3424L56.8291 42.9466C56.5449 43.1479 56.2052 43.2561 55.8568 43.2561C55.5085 43.2561 55.1688 43.1479 54.8846 42.9466L42.5595 34.2146L43.2475 49.4885C43.2625 49.8217 43.178 50.1519 43.0049 50.4371C42.8318 50.7222 42.5778 50.9494 42.2752 51.0899L27.9618 57.7344Z" fill="#A7E1EB"/>
</g>
<defs>
<filter id="filter0_d_39_405" x="-1.23978e-05" y="2.86102e-06" width="110.906" height="123.529" filterUnits="userSpaceOnUse" color-interpolation-filters="sRGB">
<feFlood flood-opacity="0" result="BackgroundImageFix"/>
<feColorMatrix in="SourceAlpha" type="matrix" values="0 0 0 0 0 0 0 0 0 0 0 0 0 0 0 0 0 0 127 0" result="hardAlpha"/>
<feOffset dy="4"/>
<feGaussianBlur stdDeviation="5.65"/>
<feComposite in2="hardAlpha" operator="out"/>
<feColorMatrix type="matrix" values="0 0 0 0 0 0 0 0 0 0 0 0 0 0 0 0 0 0 0.25 0"/>
<feBlend mode="normal" in2="BackgroundImageFix" result="effect1_dropShadow_39_405"/>
<feBlend mode="normal" in="SourceGraphic" in2="effect1_dropShadow_39_405" result="shape"/>
</filter>
</defs>
</svg>
