<svg width="100" height="124" viewBox="0 0 100 124" fill="none" xmlns="http://www.w3.org/2000/svg">
<g filter="url(#filter0_d_39_284)">
<path d="M84.3866 7.3H42.6228C40.7007 7.3 39.1425 8.85819 39.1425 10.7803V24.7016C39.1425 26.6237 40.7007 28.1819 42.6228 28.1819H84.3866C86.3087 28.1819 87.8669 26.6237 87.8669 24.7016V10.7803C87.8669 8.85819 86.3087 7.3 84.3866 7.3Z" fill="#E3E3E1"/>
<path d="M84.3867 7.3H83.969C77.2172 20.3077 62.84 25.8344 51.8283 28.1819H84.3867C85.3097 28.1819 86.1949 27.8152 86.8476 27.1625C87.5003 26.5098 87.867 25.6246 87.867 24.7016V10.7803C87.867 9.85728 87.5003 8.97205 86.8476 8.31936C86.1949 7.66668 85.3097 7.3 84.3867 7.3Z" fill="#DBDBD9"/>
<path d="M82.6464 28.1819H44.363V59.5047L21.7409 71.4143C18.5913 73.0708 15.9541 75.5562 14.114 78.6022C12.2739 81.6482 11.3009 85.1389 11.3 88.6976C11.3 93.8776 13.3578 98.8456 17.0206 102.508C20.6835 106.171 25.6514 108.229 30.8315 108.229H31.2056C34.1392 108.229 37.0351 107.568 39.6785 106.296L72.7936 90.3507C75.7452 88.9297 78.2357 86.7043 79.9787 83.9307C81.7217 81.1571 82.6464 77.9477 82.6464 74.6719V28.1819Z" fill="#DD4A43"/>
<path d="M33.313 107.5L16.4857 75.7717C16.2723 75.3635 16.2294 74.8875 16.3664 74.4478C16.5034 74.0081 16.8091 73.6406 17.2166 73.4259C17.6248 73.2113 18.1016 73.1676 18.5421 73.3043C18.9826 73.441 19.3508 73.747 19.5658 74.1551L36.3914 105.88C36.606 106.288 36.6497 106.765 36.513 107.205C36.3763 107.646 36.0703 108.014 35.6622 108.229C35.254 108.444 34.7772 108.487 34.3367 108.351C33.8962 108.214 33.528 107.908 33.313 107.5Z" fill="#7EA82D"/>
<path d="M41.9999 104.063L23.9127 71.3377C23.803 71.1369 23.734 70.9165 23.7096 70.6889C23.6852 70.4614 23.7059 70.2313 23.7706 70.0118C23.8352 69.7923 23.9425 69.5877 24.0864 69.4097C24.2302 69.2318 24.4077 69.0839 24.6088 68.9746C25.0114 68.7551 25.4845 68.7035 25.9251 68.8309C26.3656 68.9583 26.7381 69.2545 26.9614 69.655L45.0486 102.386C45.271 102.79 45.3237 103.266 45.1951 103.709C45.0666 104.152 44.7673 104.526 44.363 104.749C43.9587 104.971 43.4826 105.024 43.0395 104.895C42.5963 104.767 42.2224 104.467 41.9999 104.063Z" fill="#7EA82D"/>
<path d="M73.9456 62.985C73.4841 62.9849 73.0416 62.8015 72.7153 62.4751L63.5047 53.2645L55.5243 61.2449C54.8717 61.8973 53.9866 62.2638 53.0637 62.2638C52.1409 62.2638 51.2558 61.8973 50.6031 61.2449L44.3629 55.0047C44.0367 54.6783 43.8535 54.2358 43.8535 53.7744C43.8535 53.3129 44.0367 52.8704 44.3629 52.5441C44.6893 52.2178 45.1318 52.0346 45.5932 52.0346C46.0547 52.0346 46.4972 52.2178 46.8235 52.5441L53.0637 58.7843L62.2744 49.5736C62.6007 49.2474 63.0432 49.0641 63.5047 49.0641C63.9661 49.0641 64.4086 49.2474 64.735 49.5736L73.9456 58.7843L80.1858 52.5441C80.5121 52.2178 80.9547 52.0346 81.4161 52.0346C81.8775 52.0346 82.3201 52.2178 82.6464 52.5441C82.9726 52.8704 83.1559 53.3129 83.1559 53.7744C83.1559 54.2358 82.9726 54.6783 82.6464 55.0047L75.1759 62.4751C74.8496 62.8015 74.4071 62.9849 73.9456 62.985Z" fill="#7EA82D"/>
<path d="M73.9456 49.0638C73.4841 49.0637 73.0416 48.8803 72.7153 48.5539L63.5047 39.3432L55.5243 47.3236C54.8717 47.9761 53.9866 48.3426 53.0637 48.3426C52.1409 48.3426 51.2558 47.9761 50.6031 47.3236L44.3629 41.0834C44.0367 40.7571 43.8535 40.3145 43.8535 39.8531C43.8535 39.3917 44.0367 38.9492 44.3629 38.6228C44.6893 38.2966 45.1318 38.1133 45.5932 38.1133C46.0547 38.1133 46.4972 38.2966 46.8235 38.6228L53.0637 44.863L62.2744 35.6524C62.6007 35.3261 63.0432 35.1429 63.5047 35.1429C63.9661 35.1429 64.4086 35.3261 64.735 35.6524L73.9456 44.863L80.1858 38.6228C80.5121 38.2966 80.9547 38.1133 81.4161 38.1133C81.8775 38.1133 82.3201 38.2966 82.6464 38.6228C82.9726 38.9492 83.1559 39.3917 83.1559 39.8531C83.1559 40.3145 82.9726 40.7571 82.6464 41.0834L75.1759 48.5539C74.8496 48.8803 74.4071 49.0637 73.9456 49.0638Z" fill="#7EA82D"/>
<path d="M75.6858 12.5205H72.2054V28.1819H75.6858V12.5205Z" fill="#C9C9C8"/>
<path d="M68.7252 12.5205H65.2448V28.1819H68.7252V12.5205Z" fill="#C9C9C8"/>
<path d="M61.7645 12.5205H58.2842V28.1819H61.7645V12.5205Z" fill="#C9C9C8"/>
<path d="M54.8039 12.5205H51.3236V28.1819H54.8039V12.5205Z" fill="#C9C9C8"/>
<path d="M82.6464 12.5205H79.1661V28.1819H82.6464V12.5205Z" fill="#C9C9C8"/>
<path d="M47.8433 19.4811H44.3629V28.1819H47.8433V19.4811Z" fill="#C9C9C8"/>
<path d="M47.8433 12.5205H44.3629V16.0008H47.8433V12.5205Z" fill="#C9C9C8"/>
<path d="M81.7154 66.5976C78.822 67.011 76.0526 68.0466 73.5978 69.6331C71.1431 71.2196 69.0614 73.3192 67.496 75.7874C65.9306 78.2557 64.9188 81.0338 64.5301 83.9307C64.1415 86.8275 64.3853 89.7741 65.2448 92.5677L65.7842 93.7249L72.7936 90.3507C75.7451 88.9297 78.2356 86.7043 79.9786 83.9307C81.7216 81.157 82.6463 77.9477 82.6463 74.6719V66.4932L81.7154 66.5976Z" fill="#7EA82D"/>
<path d="M82.6464 28.1819H44.3629V33.4024H82.6464V28.1819Z" fill="#D13E37"/>
</g>
<defs>
<filter id="filter0_d_39_284" x="-1.23978e-05" y="2.86102e-06" width="99.167" height="123.729" filterUnits="userSpaceOnUse" color-interpolation-filters="sRGB">
<feFlood flood-opacity="0" result="BackgroundImageFix"/>
<feColorMatrix in="SourceAlpha" type="matrix" values="0 0 0 0 0 0 0 0 0 0 0 0 0 0 0 0 0 0 127 0" result="hardAlpha"/>
<feOffset dy="4"/>
<feGaussianBlur stdDeviation="5.65"/>
<feComposite in2="hardAlpha" operator="out"/>
<feColorMatrix type="matrix" values="0 0 0 0 0 0 0 0 0 0 0 0 0 0 0 0 0 0 0.25 0"/>
<feBlend mode="normal" in2="BackgroundImageFix" result="effect1_dropShadow_39_284"/>
<feBlend mode="normal" in="SourceGraphic" in2="effect1_dropShadow_39_284" result="shape"/>
</filter>
</defs>
</svg>
