<svg width="124" height="127" viewBox="0 0 124 127" fill="none" xmlns="http://www.w3.org/2000/svg">
<g filter="url(#filter0_d_39_492)">
<path d="M39.1464 82.1267V83.8669C39.1411 84.7889 39.3815 85.6958 39.8428 86.4941C40.3041 87.2925 40.9698 87.9535 41.7713 88.4093C42.5728 88.8651 43.4813 89.0992 44.4033 89.0874C45.3253 89.0757 46.2275 88.8186 47.0172 88.3426C47.705 86.3093 48.2579 84.2328 48.6721 82.1267H39.1464Z" fill="#FEC9A3"/>
<path d="M74.865 82.1267C75.2792 84.2328 75.832 86.3093 76.5199 88.3426C77.3096 88.8186 78.2118 89.0757 79.1338 89.0874C80.0557 89.0992 80.9642 88.8651 81.7657 88.4093C82.5673 87.9535 83.2329 87.2925 83.6943 86.4941C84.1556 85.6958 84.396 84.7889 84.3906 83.8669V82.1267H74.865Z" fill="#FEC9A3"/>
<path d="M61.7686 21.2213C54.8237 21.2213 49.5875 18.2282 49.5875 14.2606C49.5875 10.2931 54.8237 7.3 61.7686 7.3C68.7136 7.3 73.9497 10.2931 73.9497 14.2606C73.9497 18.2282 68.7136 21.2213 61.7686 21.2213ZM61.7686 10.7803C56.4577 10.7803 53.0678 12.8424 53.0678 14.2606C53.0678 15.6789 56.4577 17.7409 61.7686 17.7409C67.0796 17.7409 70.4694 15.6789 70.4694 14.2606C70.4694 12.8424 67.0796 10.7803 61.7686 10.7803Z" fill="#E3E3E1"/>
<path d="M39.1464 69.9456V64.7565C39.1464 62.434 39.5643 60.1305 40.3801 57.956L42.4248 52.5006C43.6936 49.1166 43.9908 45.4453 43.2827 41.9013C42.3968 37.8393 42.9113 33.597 44.7427 29.8646C46.3524 26.7364 48.793 24.1123 51.7965 22.2806C54.8001 20.4488 58.2503 19.4802 61.7684 19.4811C65.2864 19.4802 68.7367 20.4488 71.7403 22.2806C74.7438 24.1123 77.1844 26.7364 78.7941 29.8646C80.6255 33.597 81.14 37.8393 80.2541 41.9013C79.5451 45.4452 79.8422 49.1168 81.112 52.5006L83.1567 57.956C83.9725 60.1305 84.3904 62.434 84.3904 64.7565V69.9456" fill="#FD9A30"/>
<path d="M83.1568 57.956L81.1121 52.5006C79.8424 49.1168 79.5452 45.4452 80.2542 41.9013C81.1402 37.8393 80.6256 33.597 78.7943 29.8646C77.1846 26.7364 74.744 24.1123 71.7404 22.2806C68.7369 20.4488 65.2866 19.4802 61.7686 19.4811C60.0034 19.4814 58.2467 19.725 56.5481 20.205C59.0717 20.9225 61.4213 22.15 63.4518 23.8114C65.4823 25.4728 67.1505 27.533 68.3533 29.8646C70.1847 33.597 70.6993 37.8393 69.8133 41.9013C69.1043 45.4452 69.4015 49.1168 70.6712 52.5006L72.7159 57.956C73.5317 60.1305 73.9496 62.434 73.9497 64.7565V69.9456H84.3906V64.7565C84.3906 62.434 83.9726 60.1305 83.1568 57.956Z" fill="#F28E22"/>
<path d="M49.5875 33.4024H73.9497V42.1031C73.9497 45.3338 72.6664 48.4321 70.382 50.7165C68.0976 53.0009 64.9992 54.2842 61.7686 54.2842C58.538 54.2842 55.4397 53.0009 53.1553 50.7165C50.8709 48.4321 49.5875 45.3338 49.5875 42.1031V33.4024Z" fill="#FEC9A3"/>
<path d="M68.7291 33.4024V42.1031C68.7281 44.8796 67.7787 47.5724 66.0381 49.7355C64.2975 51.8986 61.8702 53.4022 59.1582 53.9971C60.0155 54.1857 60.8906 54.282 61.7684 54.2842C64.9991 54.2842 68.0974 53.0009 70.3818 50.7165C72.6662 48.4321 73.9495 45.3338 73.9495 42.1031V33.4024H68.7291Z" fill="#FEC093"/>
<path d="M58.2883 38.6228H54.808V42.1031H58.2883V38.6228Z" fill="#7A4321"/>
<path d="M68.7292 38.6228H65.2489V42.1031H68.7292V38.6228Z" fill="#7A4321"/>
<path d="M61.7686 49.0637C60.384 49.0637 59.0562 48.5137 58.0771 47.5347C57.0981 46.5557 56.5481 45.2278 56.5481 43.8433H60.0284C60.0284 44.3048 60.2117 44.7474 60.5381 45.0738C60.8644 45.4001 61.307 45.5834 61.7686 45.5834C62.2301 45.5834 62.6727 45.4001 62.999 45.0738C63.3254 44.7474 63.5087 44.3048 63.5087 43.8433H66.989C66.989 45.2278 66.439 46.5557 65.46 47.5347C64.481 48.5137 63.1531 49.0637 61.7686 49.0637Z" fill="#E66B65"/>
<path d="M84.3904 64.7252C84.3904 61.9561 83.2904 59.3004 81.3324 57.3423C79.3743 55.3843 76.7186 54.2842 73.9495 54.2842H49.5873C46.8182 54.2842 44.1625 55.3843 42.2044 57.3423C40.2464 59.3004 39.1464 61.9561 39.1464 64.7252V82.1267H48.672C48.09 85.1006 47.2313 88.0135 46.107 90.8275C43.8081 96.5752 42.6269 102.709 42.6267 108.899V109.969H80.9101V108.899C80.9099 102.709 79.7286 96.5752 77.4298 90.8275C76.3055 88.0135 75.4468 85.1006 74.8648 82.1267H84.3904V64.7252Z" fill="#EBEBE8"/>
<path d="M54.808 54.2842V59.5047C54.808 60.4277 55.1747 61.313 55.8273 61.9657C56.48 62.6184 57.3653 62.985 58.2883 62.985H65.2489C66.172 62.985 67.0572 62.6184 67.7099 61.9657C68.3626 61.313 68.7292 60.4277 68.7292 59.5047V54.2842H54.808Z" fill="#FEC9A3"/>
<path d="M28.9511 40.363H15.8999C14.7915 40.3397 13.7132 40.7241 12.8696 41.4433C12.0259 42.1624 11.4757 43.1663 11.3233 44.2644C11.2604 44.8707 11.3256 45.4834 11.5146 46.0628C11.7037 46.6423 12.0124 47.1755 12.4208 47.628C12.8291 48.0805 13.328 48.4421 13.8851 48.6895C14.4422 48.9368 15.045 49.0643 15.6545 49.0638H20.0049L16.723 51.5243C15.8224 52.1709 15.1905 53.1257 14.9474 54.2073C14.7042 55.289 14.8667 56.4223 15.4039 57.3921C15.7173 57.9145 16.1368 58.3653 16.6354 58.7152C17.1339 59.0652 17.7004 59.3065 18.2982 59.4236C18.8959 59.5407 19.5116 59.531 20.1054 59.3951C20.6992 59.2592 21.2578 59.0001 21.7451 58.6346L25.2254 56.0244L24.4754 59.0262C24.3478 59.5419 24.3242 60.0778 24.4059 60.6028C24.4876 61.1277 24.673 61.6311 24.9512 62.0837C25.2295 62.5362 25.5951 62.9289 26.0267 63.2387C26.4582 63.5485 26.9472 63.7693 27.465 63.8881C28.3361 64.0836 29.2476 63.9822 30.0545 63.6001C30.8614 63.2179 31.5174 62.5769 31.918 61.7791L33.9262 57.7645C34.2705 59.1272 34.9237 60.3923 35.8353 61.462C36.7469 62.5317 37.8924 63.3773 39.1832 63.9334C39.2642 61.8902 39.6683 59.8727 40.3804 57.956L42.4251 52.5006L34.2742 42.8357C33.6205 42.0608 32.8055 41.438 31.886 41.0108C30.9666 40.5837 29.9649 40.3626 28.9511 40.363Z" fill="#E3E3E1"/>
<path d="M94.5862 40.363H107.637C108.746 40.3397 109.824 40.7241 110.668 41.4433C111.511 42.1624 112.062 43.1663 112.214 44.2644C112.277 44.8707 112.212 45.4834 112.023 46.0628C111.834 46.6423 111.525 47.1755 111.116 47.628C110.708 48.0805 110.209 48.4421 109.652 48.6895C109.095 48.9368 108.492 49.0643 107.883 49.0638H103.532L106.814 51.5243C107.715 52.1709 108.347 53.1257 108.59 54.2073C108.833 55.289 108.671 56.4223 108.133 57.3921C107.82 57.9145 107.4 58.3653 106.902 58.7152C106.403 59.0652 105.837 59.3065 105.239 59.4236C104.641 59.5407 104.026 59.531 103.432 59.3951C102.838 59.2592 102.279 59.0001 101.792 58.6346L98.3119 56.0244L99.0619 59.0262C99.1895 59.5419 99.2131 60.0778 99.1314 60.6028C99.0497 61.1277 98.8643 61.6311 98.5861 62.0837C98.3078 62.5362 97.9422 62.9289 97.5106 63.2387C97.079 63.5485 96.5901 63.7693 96.0723 63.8881C95.2012 64.0836 94.2897 63.9822 93.4828 63.6001C92.6759 63.2179 92.0199 62.5769 91.6192 61.7791L89.6111 57.7645C89.2668 59.1272 88.6136 60.3923 87.702 61.462C86.7904 62.5317 85.6449 63.3773 84.3541 63.9334C84.2731 61.8902 83.869 59.8727 83.1569 57.956L81.1122 52.5006L89.2631 42.8357C89.9167 42.0608 90.7318 41.438 91.6513 41.0108C92.5707 40.5837 93.5724 40.3626 94.5862 40.363Z" fill="#E3E3E1"/>
<path d="M77.4682 90.1593C77.2525 90.2471 77.0214 90.2907 76.7886 90.2875C76.5557 90.2844 76.3259 90.2345 76.1126 90.1408C75.8994 90.0472 75.7071 89.9117 75.5472 89.7424C75.3873 89.5731 75.263 89.3735 75.1817 89.1553C73.2098 83.6866 72.2041 77.9167 72.2095 72.1035V67.5529C72.2095 67.0914 72.3928 66.6488 72.7192 66.3225C73.0455 65.9961 73.4881 65.8128 73.9497 65.8128C74.4112 65.8128 74.8538 65.9961 75.1801 66.3225C75.5065 66.6488 75.6898 67.0914 75.6898 67.5529V72.1035C75.6855 77.5014 76.6169 82.8591 78.4427 87.9389C78.6005 88.3628 78.5871 88.8316 78.4052 89.2457C78.2232 89.6599 77.8872 89.9887 77.4682 90.1593Z" fill="#C9C9C8"/>
<path d="M46.0688 90.1593C45.6498 89.9887 45.3138 89.6616 45.1319 89.2475C44.95 88.8333 44.9365 88.3646 45.0943 87.9406C46.9203 82.8603 47.8518 77.5019 47.8472 72.1035V67.5529C47.8472 67.0914 48.0306 66.6488 48.3569 66.3225C48.6833 65.9961 49.1259 65.8128 49.5874 65.8128C50.0489 65.8128 50.4915 65.9961 50.8179 66.3225C51.1442 66.6488 51.3276 67.0914 51.3276 67.5529V72.1035C51.3331 77.9173 50.3274 83.6878 48.3554 89.157C48.2739 89.3751 48.1494 89.5745 47.9895 89.7437C47.8295 89.9128 47.6372 90.0481 47.424 90.1415C47.2108 90.235 46.981 90.2847 46.7482 90.2878C46.5154 90.2908 46.2844 90.2472 46.0688 90.1593Z" fill="#C9C9C8"/>
<path d="M52.8567 83.6264L49.5406 108.743C49.4148 109.696 50.0853 110.571 51.0381 110.696C51.9908 110.822 52.8652 110.152 52.991 109.199L56.3071 84.0819C56.4329 83.1292 55.7625 82.2548 54.8097 82.129C53.8569 82.0032 52.9825 82.6736 52.8567 83.6264Z" fill="#C9C9C8"/>
<path d="M70.672 83.6389C70.5528 82.6852 69.683 82.0088 68.7294 82.128C67.7758 82.2472 67.0993 83.1169 67.2185 84.0705L70.2673 108.46C70.3865 109.414 71.2562 110.091 72.2098 109.971C73.1635 109.852 73.8399 108.982 73.7207 108.029L70.672 83.6389Z" fill="#C9C9C8"/>
<path d="M63.5088 83.8669C63.5088 82.9058 62.7297 82.1267 61.7686 82.1267C60.8075 82.1267 60.0284 82.9058 60.0284 83.8669V108.229C60.0284 109.19 60.8075 109.969 61.7686 109.969C62.7297 109.969 63.5088 109.19 63.5088 108.229V83.8669Z" fill="#C9C9C8"/>
<path d="M72.2095 73.4259H56.5481C55.5871 73.4259 54.808 74.205 54.808 75.1661C54.808 76.1272 55.5871 76.9063 56.5481 76.9063H72.2095C73.1706 76.9063 73.9497 76.1272 73.9497 75.1661C73.9497 74.205 73.1706 73.4259 72.2095 73.4259Z" fill="#C9C9C8"/>
</g>
<defs>
<filter id="filter0_d_39_492" x="4.86374e-05" y="2.86102e-06" width="123.537" height="126.224" filterUnits="userSpaceOnUse" color-interpolation-filters="sRGB">
<feFlood flood-opacity="0" result="BackgroundImageFix"/>
<feColorMatrix in="SourceAlpha" type="matrix" values="0 0 0 0 0 0 0 0 0 0 0 0 0 0 0 0 0 0 127 0" result="hardAlpha"/>
<feOffset dy="4"/>
<feGaussianBlur stdDeviation="5.65"/>
<feComposite in2="hardAlpha" operator="out"/>
<feColorMatrix type="matrix" values="0 0 0 0 0 0 0 0 0 0 0 0 0 0 0 0 0 0 0.25 0"/>
<feBlend mode="normal" in2="BackgroundImageFix" result="effect1_dropShadow_39_492"/>
<feBlend mode="normal" in="SourceGraphic" in2="effect1_dropShadow_39_492" result="shape"/>
</filter>
</defs>
</svg>
