<svg width="117" height="124" viewBox="0 0 117 124" fill="none" xmlns="http://www.w3.org/2000/svg">
<g filter="url(#filter0_d_39_356)">
<path d="M91.3436 87.3482L91.4219 87.5848C98.0155 81.0235 102.513 72.6525 104.344 63.5326C106.176 54.4127 105.259 44.9543 101.71 36.3561C98.1607 27.7578 92.139 20.4066 84.4079 15.2339C76.6767 10.0613 67.5841 7.3 58.2821 7.3C48.9801 7.3 39.8875 10.0613 32.1563 15.2339C24.4251 20.4066 18.4035 27.7578 14.8543 36.3561C11.3051 44.9543 10.3882 54.4127 12.2197 63.5326C14.0512 72.6525 18.5487 81.0235 25.1423 87.5848L25.2206 87.3482" fill="#87CED9"/>
<path d="M24.3209 86.7287C24.5941 87.0141 24.8621 87.3064 25.1422 87.5848L25.2205 87.3481H26.503C25.7704 87.155 25.0465 86.9514 24.3209 86.7287Z" fill="#71C4D1"/>
<path d="M90.7223 20.3204C92.8334 27.1626 93.5396 34.361 92.7983 41.483C92.057 48.6051 89.8836 55.5038 86.4086 61.7645C82.9337 68.0253 78.2289 73.519 72.577 77.9155C66.9251 82.3119 60.4427 85.5204 53.5194 87.3482H91.3435L91.4218 87.5848C95.8673 83.1637 99.3825 77.8971 101.76 72.0956C104.137 66.294 105.328 60.0752 105.264 53.8058C105.199 47.5364 103.879 41.3435 101.382 35.5924C98.8852 29.8413 95.2619 24.6486 90.7257 20.3204H90.7223Z" fill="#71C4D1"/>
<path d="M98.3038 108.229H18.2603L25.2206 87.3482H91.3435L98.3038 108.229Z" fill="#995023"/>
<path d="M91.3434 87.3482H80.5636C70.1023 98.1158 56.1591 104.481 44.0673 108.229H98.3037L91.3434 87.3482Z" fill="#80421C"/>
<path d="M21.8118 42.6369L18.5056 41.5755C20.8628 34.2316 25.2048 27.6825 31.0516 22.6521L33.3241 25.2883C27.9602 29.8988 23.9758 35.903 21.8118 42.6369Z" fill="#AADDE6"/>
<path d="M36.7328 22.6608L34.7682 19.788C36.4735 18.6228 38.2626 17.5852 40.1207 16.6837L41.6416 19.8158C39.9379 20.6428 38.2973 21.5937 36.7328 22.6608Z" fill="#AADDE6"/>
<path d="M73.9427 94.3085H42.6213V101.269H73.9427V94.3085Z" fill="#FFA230"/>
<path d="M40.8813 57.7669L30.4408 69.9474V87.3482H51.3217V69.9474L40.8813 57.7669Z" fill="#DD4A43"/>
<path d="M72.2026 69.9474H51.3217V87.3482H72.2026V69.9474Z" fill="#D13E37"/>
<path d="M44.3614 75.1676H37.4011V87.3482H44.3614V75.1676Z" fill="#70320F"/>
<path d="M60.0221 75.1676H56.542V80.3879H60.0221V75.1676Z" fill="#70320F"/>
<path d="M66.9824 75.1676H63.5023V80.3879H66.9824V75.1676Z" fill="#70320F"/>
<path d="M61.7622 50.8065H54.8019V57.7668H61.7622V50.8065Z" fill="#EBEBE8"/>
<path d="M82.6431 59.5069H86.1233L79.1629 47.3264L72.2026 59.5069H75.6828L72.2026 68.2073H75.6828L72.2026 78.6478H86.1233L82.6431 68.2073H86.1233L82.6431 59.5069Z" fill="#EBEBE8"/>
<path d="M80.903 78.6478H77.4229V87.3482H80.903V78.6478Z" fill="#80421C"/>
<path d="M54.8019 36.886H51.3217V40.3661H54.8019V36.886Z" fill="#EBEBE8"/>
<path d="M47.8415 26.4455H44.3613V29.9256H47.8415V26.4455Z" fill="#EBEBE8"/>
<path d="M96.5637 50.8065H93.0836V54.2867H96.5637V50.8065Z" fill="#EBEBE8"/>
<path d="M87.8634 33.4058H84.3832V36.886H87.8634V33.4058Z" fill="#EBEBE8"/>
<path d="M21.7404 59.5069H18.2603V62.9871H21.7404V59.5069Z" fill="#EBEBE8"/>
<path d="M63.5023 14.265H60.0222V17.7451H63.5023V14.265Z" fill="#EBEBE8"/>
<path d="M70.4625 29.9256H66.9824V33.4058H70.4625V29.9256Z" fill="#EBEBE8"/>
<path d="M32.1808 45.5863H28.7007V49.0665H32.1808V45.5863Z" fill="#EBEBE8"/>
<path d="M73.9427 101.269H42.6213V104.749H73.9427V101.269Z" fill="#80421C"/>
<path d="M72.2026 69.9474H51.3217V73.4276H72.2026V69.9474Z" fill="#BA3731"/>
<path d="M40.8813 57.7669H61.7622L72.2027 69.9474H51.3217L40.8813 57.7669Z" fill="#EBEBE8"/>
<path d="M80.903 78.6478H77.4229V82.1279H80.903V78.6478Z" fill="#70320F"/>
<path d="M73.9427 97.7887H42.6213V101.269H73.9427V97.7887Z" fill="#DE6E12"/>
</g>
<defs>
<filter id="filter0_d_39_356" x="-1.23978e-05" y="2.86102e-06" width="116.566" height="123.529" filterUnits="userSpaceOnUse" color-interpolation-filters="sRGB">
<feFlood flood-opacity="0" result="BackgroundImageFix"/>
<feColorMatrix in="SourceAlpha" type="matrix" values="0 0 0 0 0 0 0 0 0 0 0 0 0 0 0 0 0 0 127 0" result="hardAlpha"/>
<feOffset dy="4"/>
<feGaussianBlur stdDeviation="5.65"/>
<feComposite in2="hardAlpha" operator="out"/>
<feColorMatrix type="matrix" values="0 0 0 0 0 0 0 0 0 0 0 0 0 0 0 0 0 0 0.25 0"/>
<feBlend mode="normal" in2="BackgroundImageFix" result="effect1_dropShadow_39_356"/>
<feBlend mode="normal" in="SourceGraphic" in2="effect1_dropShadow_39_356" result="shape"/>
</filter>
</defs>
</svg>
