<svg width="125" height="124" viewBox="0 0 125 124" fill="none" xmlns="http://www.w3.org/2000/svg">
<g filter="url(#filter0_d_39_929)">
<path d="M27.2422 94.8131C27.2422 94.8131 43.3827 111.793 71.0702 107.485C98.7577 103.186 109.86 78.9077 112.144 65.0682C115.049 47.4412 106.996 35.3232 106.568 34.6598C106.249 34.1727 27.2422 94.8131 27.2422 94.8131Z" fill="#DC5819"/>
<path d="M25.9824 21.9959C9.39678 39.4549 6.58352 64.959 19.0542 84.6686C24.8571 93.839 28.4094 95.7033 28.4094 95.7033C28.4094 95.7033 55.5426 113.103 86.035 86.7261C112.152 64.136 106.618 34.7186 106.618 34.7186C106.618 34.7186 103.36 27.5972 96.507 20.837C81.2986 5.82179 47.3044 -0.459755 25.9824 21.9959Z" fill="#EF6C32"/>
<path d="M92.4598 17.4023C92.2162 17.4191 67.955 19.1659 42.2914 53.664C26.0837 75.4478 26.8814 90.8242 27.5113 95.0398C27.5113 95.0398 26.2768 94.0237 25.4034 93.0832C24.5301 92.151 23.8498 91.3196 23.8498 91.3196C23.7827 83.938 25.9913 69.9473 39.6041 51.6569C60.3214 23.7846 80.1318 16.5206 88.4372 14.6395C88.4372 14.6395 89.4533 15.2357 90.4359 15.8487C91.1581 16.3022 92.4598 17.4023 92.4598 17.4023Z" fill="#2D3130"/>
<path d="M21.5822 27.2613C24.2779 31.687 30.7862 41.252 42.056 51.237C56.2399 63.8169 70.9864 74.0454 85.8673 81.6286C92.8962 85.2144 98.296 87.3139 102.117 88.5484C102.117 88.5484 101.563 89.3965 101.042 90.0936C100.521 90.7906 99.9503 91.3784 99.9503 91.3784C96.0622 90.06 90.8723 87.9605 84.3305 84.6182C69.1976 76.9006 54.216 66.5126 39.8222 53.7479C29.157 44.292 22.6907 35.34 19.5164 30.3265C19.5164 30.3265 19.9614 29.4448 20.5493 28.6638C21.1371 27.8828 21.5822 27.2613 21.5822 27.2613Z" fill="#2D3130"/>
<path d="M53.1663 7.93805C51.9654 9.30689 50.2523 11.5323 48.2536 14.8998C46.4229 17.9734 45.4824 21.0302 44.3906 24.5741C42.6019 30.3853 40.578 36.9692 33.9522 45.3838C24.7482 57.0735 15.7038 60.9785 11.4881 62.2297C11.4881 62.2297 11.3705 61.138 11.3286 60.3738C11.2866 59.6096 11.3034 58.7446 11.3034 58.7446C15.3091 57.3758 23.2366 53.5464 31.3069 43.3095C37.5464 35.382 39.4695 29.1173 41.1743 23.5915C42.2828 19.9973 43.3241 16.6046 45.3648 13.1867C46.3305 11.5659 47.2375 10.1803 48.0689 9.02136C48.0689 9.02136 49.001 8.71065 50.2775 8.42512C51.2684 8.18998 53.1663 7.93805 53.1663 7.93805Z" fill="#2D3130"/>
<path d="M66.2166 108.073C63.4034 105.529 57.5921 99.7174 53.3512 91.6304C48.6569 82.6867 46.4566 69.2335 52.7214 60.8273C59.8763 51.237 73.2372 49.9354 85.3804 49.9354H85.4308C100.891 49.9438 112.522 53.1769 112.656 53.2189C112.656 53.2189 112.564 52.0852 112.438 51.1195C112.329 50.2881 112.211 49.5155 112.211 49.5155C111.623 49.3643 101.345 46.5846 85.4308 46.5762H85.3804C72.4058 46.5762 58.0624 48.0375 50.0257 58.8202C44.8527 65.7568 42.9548 79.0757 50.3784 93.1924C53.8719 99.8434 58.2723 104.974 61.4887 108.208C61.4887 108.208 62.4292 108.241 63.6301 108.224C64.8142 108.208 66.2166 108.073 66.2166 108.073Z" fill="#2D3130"/>
</g>
<defs>
<filter id="filter0_d_39_929" x="4.86374e-05" y="2.86102e-06" width="124.075" height="123.529" filterUnits="userSpaceOnUse" color-interpolation-filters="sRGB">
<feFlood flood-opacity="0" result="BackgroundImageFix"/>
<feColorMatrix in="SourceAlpha" type="matrix" values="0 0 0 0 0 0 0 0 0 0 0 0 0 0 0 0 0 0 127 0" result="hardAlpha"/>
<feOffset dy="4"/>
<feGaussianBlur stdDeviation="5.65"/>
<feComposite in2="hardAlpha" operator="out"/>
<feColorMatrix type="matrix" values="0 0 0 0 0 0 0 0 0 0 0 0 0 0 0 0 0 0 0.25 0"/>
<feBlend mode="normal" in2="BackgroundImageFix" result="effect1_dropShadow_39_929"/>
<feBlend mode="normal" in="SourceGraphic" in2="effect1_dropShadow_39_929" result="shape"/>
</filter>
</defs>
</svg>
