<svg width="127" height="124" viewBox="0 0 127 124" fill="none" xmlns="http://www.w3.org/2000/svg">
<g filter="url(#filter0_d_39_599)">
<path d="M63.5047 7.30002C59.4714 7.29486 55.5231 8.45931 52.1381 10.6523C48.7531 12.8453 46.0767 15.9728 44.4329 19.6559C42.7891 23.3391 42.2485 27.4198 42.8767 31.4039C43.5048 35.388 45.2748 39.1045 47.972 42.1031H79.0373C81.7346 39.1045 83.5045 35.388 84.1327 31.4039C84.7608 27.4198 84.2203 23.3391 82.5765 19.6559C80.9327 15.9728 78.2562 12.8453 74.8712 10.6523C71.4862 8.45931 67.538 7.29486 63.5047 7.30002Z" fill="#EBEBE8"/>
<path d="M84.3867 28.1819C84.3895 25.4192 83.8422 22.6835 82.7768 20.1345C81.7114 17.5854 80.1492 15.274 78.1813 13.3349C75.6389 27.1587 66.3343 36.3154 57.2402 42.1032H79.0374C82.4819 38.2846 84.3878 33.3244 84.3867 28.1819Z" fill="#E3E3E1"/>
<path d="M26.9615 45.5835H23.4811V51.8237L14.2705 42.613L11.8099 45.0736L17.5402 50.8039H11.3V54.2843H21.0206L35.6622 68.9259L38.1228 66.4653L26.9615 55.304V45.5835Z" fill="#A65B2D"/>
<path d="M115.709 50.8039H109.469L115.2 45.0736L112.739 42.613L103.528 51.8237V45.5835H100.048V55.304L87.8669 67.4851L90.3275 69.9457L105.989 54.2843H115.709V50.8039Z" fill="#A65B2D"/>
<path d="M96.3537 74.8373C95.8219 70.2921 94.3525 65.9067 92.0382 61.9588C89.724 58.0109 86.6154 54.5864 82.9092 51.902L44.0829 51.8881C39.8554 54.9521 36.4149 58.9749 34.0436 63.6264C31.6723 68.2779 30.438 73.4254 30.4418 78.6465C30.4418 79.295 30.4603 79.9388 30.4975 80.578C31.4023 96.2534 44.9408 108.229 60.6492 108.229H66.3134C74.1914 108.296 81.7796 105.262 87.44 99.7821C93.1004 94.3024 96.3789 86.8166 96.5677 78.9405C96.5789 77.5697 96.5074 76.1995 96.3537 74.8373Z" fill="#EBEBE8"/>
<path d="M96.3536 74.8373C95.5409 67.8079 92.4744 61.2306 87.6128 56.0888C80.2903 86.6164 54.7535 95.7644 38.1924 98.4651C41.0652 101.547 44.5415 104.004 48.405 105.683C52.2684 107.363 56.4363 108.23 60.6491 108.229H66.3133C74.1913 108.296 81.7795 105.262 87.4399 99.7821C93.1003 94.3024 96.3788 86.8166 96.5677 78.9406C96.5789 77.5697 96.5074 76.1995 96.3536 74.8373Z" fill="#E3E3E1"/>
<path d="M63.5047 36.8827C61.6586 36.8827 59.8882 36.1493 58.5828 34.844C57.2774 33.5386 56.5441 31.7681 56.5441 29.9221H60.0244C60.0244 30.8451 60.3911 31.7303 61.0437 32.383C61.6964 33.0357 62.5817 33.4024 63.5047 33.4024C64.4277 33.4024 65.313 33.0357 65.9656 32.383C66.6183 31.7303 66.985 30.8451 66.985 29.9221H70.4653C70.4653 31.7681 69.732 33.5386 68.4266 34.844C67.1212 36.1493 65.3508 36.8827 63.5047 36.8827Z" fill="#A6A6A4"/>
<path d="M63.5047 68.2055C65.4269 68.2055 66.985 66.6473 66.985 64.7252C66.985 62.8031 65.4269 61.2449 63.5047 61.2449C61.5826 61.2449 60.0244 62.8031 60.0244 64.7252C60.0244 66.6473 61.5826 68.2055 63.5047 68.2055Z" fill="#A6A6A4"/>
<path d="M63.5047 83.8669C65.4269 83.8669 66.985 82.3087 66.985 80.3866C66.985 78.4645 65.4269 76.9063 63.5047 76.9063C61.5826 76.9063 60.0244 78.4645 60.0244 80.3866C60.0244 82.3087 61.5826 83.8669 63.5047 83.8669Z" fill="#A6A6A4"/>
<path d="M63.5047 99.5283C65.4269 99.5283 66.985 97.9701 66.985 96.048C66.985 94.1259 65.4269 92.5677 63.5047 92.5677C61.5826 92.5677 60.0244 94.1259 60.0244 96.048C60.0244 97.9701 61.5826 99.5283 63.5047 99.5283Z" fill="#A6A6A4"/>
<path d="M87.8669 83.8669H73.9457V52.5441L82.3924 50.7674L87.8669 83.8669Z" fill="#DD4A43"/>
<path d="M39.1425 78.6465H35.6622C35.6604 74.812 36.4568 71.0192 38.001 67.5094L41.189 68.9016C39.8379 71.9726 39.141 75.2913 39.1425 78.6465Z" fill="white"/>
<path d="M42.9118 65.6527L39.9674 63.7977C40.8806 62.3493 41.9244 60.9875 43.0858 59.7292L45.6403 62.0924C44.6238 63.1932 43.7105 64.385 42.9118 65.6527Z" fill="white"/>
<path d="M53.0638 28.1819C54.9859 28.1819 56.5441 26.6237 56.5441 24.7016C56.5441 22.7795 54.9859 21.2213 53.0638 21.2213C51.1417 21.2213 49.5835 22.7795 49.5835 24.7016C49.5835 26.6237 51.1417 28.1819 53.0638 28.1819Z" fill="#7A4321"/>
<path d="M73.9458 28.1819C75.8679 28.1819 77.4261 26.6237 77.4261 24.7016C77.4261 22.7795 75.8679 21.2213 73.9458 21.2213C72.0236 21.2213 70.4655 22.7795 70.4655 24.7016C70.4655 26.6237 72.0236 28.1819 73.9458 28.1819Z" fill="#7A4321"/>
<path d="M84.096 61.2449H73.9457V64.7252H84.6772L84.096 61.2449Z" fill="#7EA82D"/>
<path d="M73.9457 71.6858V75.1661H86.4174L85.8362 71.6858H73.9457Z" fill="#7EA82D"/>
<path d="M83.1006 55.0464L82.3924 50.7674L73.9457 52.5441V55.0464H83.1006Z" fill="#D13E37"/>
<path d="M80.9062 42.1032H46.1031C44.181 42.1032 42.6228 43.6614 42.6228 45.5835V49.0638C42.6228 50.9859 44.181 52.5441 46.1031 52.5441H80.9062C82.8284 52.5441 84.3866 50.9859 84.3866 49.0638V45.5835C84.3866 43.6614 82.8284 42.1032 80.9062 42.1032Z" fill="#DD4A43"/>
<path d="M80.9062 49.0638H46.1031C45.1801 49.0638 44.2948 48.6971 43.6422 48.0444C42.9895 47.3917 42.6228 46.5065 42.6228 45.5835V49.0638C42.6228 49.9868 42.9895 50.872 43.6422 51.5247C44.2948 52.1774 45.1801 52.5441 46.1031 52.5441H80.9062C81.8293 52.5441 82.7145 52.1774 83.3672 51.5247C84.0199 50.872 84.3866 49.9868 84.3866 49.0638V45.5835C84.3866 46.5065 84.0199 47.3917 83.3672 48.0444C82.7145 48.6971 81.8293 49.0638 80.9062 49.0638Z" fill="#D13E37"/>
<path d="M54.804 42.1032H51.3237V52.5441H54.804V42.1032Z" fill="#7EA82D"/>
<path d="M65.245 42.1032H61.7646V52.5441H65.245V42.1032Z" fill="#7EA82D"/>
<path d="M75.6858 42.1032H72.2054V52.5441H75.6858V42.1032Z" fill="#7EA82D"/>
<path d="M54.804 49.0638H51.3237V52.5441H54.804V49.0638Z" fill="#729C22"/>
<path d="M65.245 49.0638H61.7646V52.5441H65.245V49.0638Z" fill="#729C22"/>
<path d="M75.6858 49.0638H72.2054V52.5441H75.6858V49.0638Z" fill="#729C22"/>
</g>
<defs>
<filter id="filter0_d_39_599" x="4.86374e-05" y="2.86102e-06" width="127.009" height="123.53" filterUnits="userSpaceOnUse" color-interpolation-filters="sRGB">
<feFlood flood-opacity="0" result="BackgroundImageFix"/>
<feColorMatrix in="SourceAlpha" type="matrix" values="0 0 0 0 0 0 0 0 0 0 0 0 0 0 0 0 0 0 127 0" result="hardAlpha"/>
<feOffset dy="4"/>
<feGaussianBlur stdDeviation="5.65"/>
<feComposite in2="hardAlpha" operator="out"/>
<feColorMatrix type="matrix" values="0 0 0 0 0 0 0 0 0 0 0 0 0 0 0 0 0 0 0.25 0"/>
<feBlend mode="normal" in2="BackgroundImageFix" result="effect1_dropShadow_39_599"/>
<feBlend mode="normal" in="SourceGraphic" in2="effect1_dropShadow_39_599" result="shape"/>
</filter>
</defs>
</svg>
