<svg width="110" height="124" viewBox="0 0 110 124" fill="none" xmlns="http://www.w3.org/2000/svg">
<g filter="url(#filter0_d_39_454)">
<path d="M62.351 40.382C65.8547 38.6959 68.6929 35.8849 70.4125 32.3974C72.1321 28.91 72.6342 24.9471 71.8386 21.141C71.0429 17.3348 68.9955 13.9049 66.0229 11.3983C63.0503 8.89169 59.3238 7.45292 55.438 7.31152C51.5522 7.17012 47.731 8.33424 44.584 10.6181C41.4371 12.9021 39.1458 16.1741 38.0756 19.9124C37.0055 23.6506 37.2182 27.6395 38.6798 31.2427C40.1414 34.8459 42.7677 37.8558 46.1397 39.7921C46.5034 40.0009 46.8775 40.1975 47.2568 40.382H18.2606C16.4145 40.382 14.6441 41.1153 13.3387 42.4207C12.0333 43.7261 11.3 45.4965 11.3 47.3426C11.3 49.1887 12.0333 50.9592 13.3387 52.2645C14.6441 53.5699 16.4145 54.3032 18.2606 54.3032H37.4023V73.445L29.0792 98.4162C28.8286 99.1651 28.7011 99.9496 28.7016 100.739V100.898C28.7016 102.847 29.476 104.717 30.8544 106.095C32.2329 107.474 34.1025 108.248 36.052 108.248C37.4749 108.249 38.8648 107.819 40.0392 107.016C41.2137 106.212 42.1179 105.073 42.6332 103.746L52.4338 78.5471C52.6192 78.0693 52.9447 77.6586 53.3677 77.3692C53.7907 77.0797 54.2914 76.925 54.8039 76.9253C55.3164 76.925 55.8171 77.0797 56.2401 77.3692C56.6631 77.6586 56.9886 78.0693 57.174 78.5471L66.9746 103.746C67.4899 105.073 68.3941 106.212 69.5686 107.016C70.743 107.819 72.1329 108.249 73.5558 108.248H73.8447C75.7175 108.248 77.5137 107.504 78.838 106.18C80.1623 104.856 80.9062 103.059 80.9062 101.187V100.692C80.9064 99.9335 80.7842 99.1796 80.5443 98.4597L72.2055 73.445V54.3032H91.3472C93.1933 54.3032 94.9637 53.5699 96.2691 52.2645C97.5745 50.9592 98.3078 49.1887 98.3078 47.3426C98.3078 45.4965 97.5745 43.7261 96.2691 42.4207C94.9637 41.1153 93.1933 40.382 91.3472 40.382H62.351Z" fill="#A65C2E"/>
<path d="M91.3472 40.382H72.2977C62.6346 58.9564 50.3595 70.217 34.9087 80.9276L29.0792 98.4162C28.8286 99.1651 28.7011 99.9496 28.7015 100.739V100.898C28.7015 102.847 29.476 104.717 30.8544 106.095C32.2329 107.474 34.1025 108.248 36.052 108.248C37.4749 108.249 38.8647 107.819 40.0392 107.016C41.2137 106.212 42.1179 105.073 42.6332 103.746L52.4338 78.5471C52.6193 78.0693 52.9448 77.6587 53.3678 77.3691C53.7907 77.0796 54.2913 76.9247 54.8039 76.9247C55.3164 76.9247 55.817 77.0796 56.24 77.3691C56.663 77.6587 56.9885 78.0693 57.174 78.5471L66.9745 103.746C67.4899 105.073 68.3941 106.212 69.5686 107.016C70.743 107.819 72.1329 108.249 73.5558 108.248H73.8447C75.7175 108.248 77.5137 107.504 78.838 106.18C80.1623 104.856 80.9062 103.059 80.9062 101.187V100.692C80.9064 99.9335 80.7842 99.1796 80.5443 98.4597L72.2055 73.445V54.3032H91.3472C93.1932 54.3032 94.9637 53.5699 96.2691 52.2645C97.5744 50.9591 98.3078 49.1887 98.3078 47.3426C98.3078 45.4965 97.5744 43.7261 96.2691 42.4207C94.9637 41.1153 93.1932 40.382 91.3472 40.382Z" fill="#9C5528"/>
<path d="M46.1031 40.382V50.8229L54.8039 45.6025L46.1031 40.382Z" fill="#D13E37"/>
<path d="M63.5047 40.382V50.8229L54.804 45.6025L63.5047 40.382Z" fill="#D13E37"/>
<path d="M23.4811 40.382H20.0008V54.3032H23.4811V40.382Z" fill="#663318"/>
<path d="M30.4417 40.382H26.9614V54.3032H30.4417V40.382Z" fill="#663318"/>
<path d="M82.6465 40.382H79.1662V54.3032H82.6465V40.382Z" fill="#663318"/>
<path d="M89.607 40.382H86.1266V54.3032H89.607V40.382Z" fill="#663318"/>
<path d="M29.1592 98.1761L42.708 103.553L43.9697 100.309L30.2607 94.868L29.1592 98.1761Z" fill="#663318"/>
<path d="M31.3657 91.5565L45.28 96.9405L46.5416 93.6969L32.4672 88.2502L31.3657 91.5565Z" fill="#663318"/>
<path d="M66.6736 102.915L80.3042 97.7376L79.2027 94.4347L65.438 99.6604L66.6736 102.915Z" fill="#663318"/>
<path d="M64.1346 96.4324L78.0628 91.0153L76.9613 87.7108L62.8747 93.1905L64.1346 96.4324Z" fill="#663318"/>
<path d="M46.1031 26.4607C48.0252 26.4607 49.5834 24.9026 49.5834 22.9804C49.5834 21.0583 48.0252 19.5001 46.1031 19.5001C44.181 19.5001 42.6228 21.0583 42.6228 22.9804C42.6228 24.9026 44.181 26.4607 46.1031 26.4607Z" fill="#663318"/>
<path d="M63.5048 26.4607C65.4269 26.4607 66.9851 24.9026 66.9851 22.9804C66.9851 21.0583 65.4269 19.5001 63.5048 19.5001C61.5827 19.5001 60.0245 21.0583 60.0245 22.9804C60.0245 24.9026 61.5827 26.4607 63.5048 26.4607Z" fill="#663318"/>
<path d="M54.8038 36.9017C52.9578 36.9017 51.1873 36.1683 49.8819 34.863C48.5766 33.5576 47.8432 31.7871 47.8432 29.9411H51.3235C51.3235 30.8641 51.6902 31.7493 52.3429 32.402C52.9956 33.0547 53.8808 33.4214 54.8038 33.4214C55.7269 33.4214 56.6121 33.0547 57.2648 32.402C57.9175 31.7493 58.2841 30.8641 58.2841 29.9411H61.7645C61.7645 31.7871 61.0311 33.5576 59.7257 34.863C58.4204 36.1683 56.6499 36.9017 54.8038 36.9017Z" fill="#663318"/>
<path d="M56.5442 54.3033H53.0638V57.7836H56.5442V54.3033Z" fill="#FDB62F"/>
<path d="M56.5442 61.2639H53.0638V64.7442H56.5442V61.2639Z" fill="#FDB62F"/>
<path d="M56.5442 68.2245H53.0638V71.7048H56.5442V68.2245Z" fill="#FDB62F"/>
</g>
<defs>
<filter id="filter0_d_39_454" x="-1.23978e-05" y="2.86102e-06" width="109.608" height="123.548" filterUnits="userSpaceOnUse" color-interpolation-filters="sRGB">
<feFlood flood-opacity="0" result="BackgroundImageFix"/>
<feColorMatrix in="SourceAlpha" type="matrix" values="0 0 0 0 0 0 0 0 0 0 0 0 0 0 0 0 0 0 127 0" result="hardAlpha"/>
<feOffset dy="4"/>
<feGaussianBlur stdDeviation="5.65"/>
<feComposite in2="hardAlpha" operator="out"/>
<feColorMatrix type="matrix" values="0 0 0 0 0 0 0 0 0 0 0 0 0 0 0 0 0 0 0.25 0"/>
<feBlend mode="normal" in2="BackgroundImageFix" result="effect1_dropShadow_39_454"/>
<feBlend mode="normal" in="SourceGraphic" in2="effect1_dropShadow_39_454" result="shape"/>
</filter>
</defs>
</svg>
