<svg width="124" height="124" viewBox="0 0 124 124" fill="none" xmlns="http://www.w3.org/2000/svg">
<g filter="url(#filter0_d_39_719)">
<path d="M108.741 50.6786C105.318 50.6776 102.015 49.415 99.4631 47.1323C96.9117 44.8496 95.2909 41.7067 94.9104 38.3044C92.5266 39.717 89.7748 40.3844 87.0086 40.2207C84.2425 40.0571 81.5886 39.0698 79.388 37.3858C77.1874 35.7018 75.5408 33.3982 74.6599 30.771C73.7789 28.1438 73.7039 25.3131 74.4445 22.643C73.7021 22.7683 72.9508 22.8329 72.1979 22.8361C68.5058 22.8361 64.9648 21.3694 62.3541 18.7587C59.7434 16.1479 58.2767 12.607 58.2767 8.91487C58.2795 8.37509 58.3132 7.83592 58.3776 7.3C48.2522 7.98112 38.5674 11.6992 30.5874 17.9688C22.6075 24.2385 16.7032 32.7684 13.6454 42.445C10.5876 52.1217 10.5183 62.4955 13.4465 72.2121C16.3748 81.9287 22.1645 90.5368 30.06 96.9125C37.9554 103.288 47.5897 107.135 57.7051 107.952C67.8205 108.768 77.947 106.516 86.7627 101.489C95.5784 96.4616 102.674 88.8934 107.122 79.7721C111.571 70.6508 113.166 60.4002 111.699 50.3584C110.728 50.5702 109.736 50.6776 108.741 50.6786Z" fill="#A65C2E"/>
<path d="M111.7 50.3584C109.796 50.7741 107.827 50.785 105.919 50.3904C104.011 49.9958 102.208 49.2046 100.625 48.068C99.0431 46.9313 97.7174 45.4748 96.7344 43.7927C95.7514 42.1107 95.133 40.2408 94.9193 38.3044C93.2724 39.2741 91.443 39.8932 89.5457 40.1228C88.9024 55.1378 82.4851 69.3242 71.6331 79.7213C60.7812 90.1183 46.3331 95.9226 31.3044 95.9227C30.4726 95.9227 29.6478 95.8949 28.8264 95.8601C36.6144 102.581 46.2709 106.76 56.5012 107.837C66.7316 108.915 77.0468 106.839 86.064 101.888C95.0812 96.9371 102.369 89.3479 106.951 80.1377C111.533 70.9276 113.19 60.5368 111.7 50.3584Z" fill="#964C1E"/>
<path d="M56.5366 57.6392C60.3808 57.6392 63.4972 54.5229 63.4972 50.6786C63.4972 46.8344 60.3808 43.718 56.5366 43.718C52.6923 43.718 49.5759 46.8344 49.5759 50.6786C49.5759 54.5229 52.6923 57.6392 56.5366 57.6392Z" fill="#663318"/>
<path d="M44.3554 92.4424C48.1996 92.4424 51.316 89.326 51.316 85.4818C51.316 81.6375 48.1996 78.5212 44.3554 78.5212C40.5112 78.5212 37.3948 81.6375 37.3948 85.4818C37.3948 89.326 40.5112 92.4424 44.3554 92.4424Z" fill="#663318"/>
<path d="M82.6388 92.4424C86.4831 92.4424 89.5995 89.326 89.5995 85.4818C89.5995 81.6375 86.4831 78.5212 82.6388 78.5212C78.7946 78.5212 75.6782 81.6375 75.6782 85.4818C75.6782 89.326 78.7946 92.4424 82.6388 92.4424Z" fill="#663318"/>
<path d="M28.6941 61.1195C30.6162 61.1195 32.1744 59.5614 32.1744 57.6392C32.1744 55.7171 30.6162 54.1589 28.6941 54.1589C26.7719 54.1589 25.2137 55.7171 25.2137 57.6392C25.2137 59.5614 26.7719 61.1195 28.6941 61.1195Z" fill="#854219"/>
<path d="M70.4576 78.5212C72.3797 78.5212 73.9379 76.963 73.9379 75.0408C73.9379 73.1187 72.3797 71.5605 70.4576 71.5605C68.5355 71.5605 66.9773 73.1187 66.9773 75.0408C66.9773 76.963 68.5355 78.5212 70.4576 78.5212Z" fill="#854219"/>
<path d="M89.5993 57.6392C91.5215 57.6392 93.0796 56.081 93.0796 54.1589C93.0796 52.2368 91.5215 50.6786 89.5993 50.6786C87.6772 50.6786 86.119 52.2368 86.119 54.1589C86.119 56.081 87.6772 57.6392 89.5993 57.6392Z" fill="#854219"/>
<path d="M38.4109 25.1244L36.3784 22.3002C38.1072 21.0569 39.9247 19.942 41.8164 18.9643L43.4139 22.0583C41.6734 22.9564 40.0012 23.9812 38.4109 25.1244Z" fill="#C47747"/>
<path d="M23.4634 45.9645L20.1327 44.9518C22.4556 37.3419 26.8211 30.5147 32.754 25.2132L35.0754 27.806C29.6171 32.6831 25.6007 38.9637 23.4634 45.9645Z" fill="#C47747"/>
</g>
<defs>
<filter id="filter0_d_39_719" x="4.86374e-05" y="2.86102e-06" width="123.532" height="123.415" filterUnits="userSpaceOnUse" color-interpolation-filters="sRGB">
<feFlood flood-opacity="0" result="BackgroundImageFix"/>
<feColorMatrix in="SourceAlpha" type="matrix" values="0 0 0 0 0 0 0 0 0 0 0 0 0 0 0 0 0 0 127 0" result="hardAlpha"/>
<feOffset dy="4"/>
<feGaussianBlur stdDeviation="5.65"/>
<feComposite in2="hardAlpha" operator="out"/>
<feColorMatrix type="matrix" values="0 0 0 0 0 0 0 0 0 0 0 0 0 0 0 0 0 0 0.25 0"/>
<feBlend mode="normal" in2="BackgroundImageFix" result="effect1_dropShadow_39_719"/>
<feBlend mode="normal" in="SourceGraphic" in2="effect1_dropShadow_39_719" result="shape"/>
</filter>
</defs>
</svg>
