<svg width="124" height="124" viewBox="0 0 124 124" fill="none" xmlns="http://www.w3.org/2000/svg">
<g filter="url(#filter0_d_39_286)">
<path d="M107.009 49.0638H16.5204V108.229H107.009V49.0638Z" fill="#7EA82D"/>
<path d="M107.009 49.0638H16.5204V56.0244H107.009V49.0638Z" fill="#729C22"/>
<path d="M112.229 28.1819H11.3V49.0638H112.229V28.1819Z" fill="#7EA82D"/>
<path d="M72.2055 28.1819H51.3236V108.229H72.2055V28.1819Z" fill="#DD4A43"/>
<path d="M54.2088 13.0721C53.3418 11.3379 52.009 9.87929 50.3597 8.85982C48.7105 7.84034 46.81 7.30023 44.8711 7.3H30.4417C27.6726 7.3 25.0169 8.40003 23.0588 10.3581C21.1008 12.3161 20.0008 14.9718 20.0008 17.7409C20.0008 20.5101 21.1008 23.1657 23.0588 25.1238C25.0169 27.0819 27.6726 28.1819 30.4417 28.1819H61.7645L54.2088 13.0721Z" fill="#DD4A43"/>
<path d="M61.7645 28.1819H44.363C41.5939 28.1819 38.9382 27.0819 36.9801 25.1238C35.0221 23.1657 33.922 20.5101 33.922 17.7409C33.922 14.9718 35.0221 12.3161 36.9801 10.3581C38.9382 8.40003 41.5939 7.3 44.363 7.3H44.8711C46.81 7.30023 48.7105 7.84034 50.3597 8.85982C52.009 9.87929 53.3418 11.3379 54.2088 13.0721L61.7645 28.1819Z" fill="#B0342E"/>
<path d="M69.3203 13.0721C70.1874 11.3379 71.5201 9.87929 73.1694 8.85982C74.8186 7.84034 76.7191 7.30023 78.658 7.3H93.0874C95.8565 7.3 98.5122 8.40003 100.47 10.3581C102.428 12.3161 103.528 14.9718 103.528 17.7409C103.528 20.5101 102.428 23.1657 100.47 25.1238C98.5122 27.0819 95.8565 28.1819 93.0874 28.1819H61.7646L69.3203 13.0721Z" fill="#DD4A43"/>
<path d="M61.7646 28.1819H79.1662C81.9353 28.1819 84.591 27.0819 86.549 25.1238C88.5071 23.1657 89.6071 20.5101 89.6071 17.7409C89.6071 14.9718 88.5071 12.3161 86.549 10.3581C84.591 8.40003 81.9353 7.3 79.1662 7.3H78.658C76.7191 7.30023 74.8186 7.84034 73.1694 8.85982C71.5201 9.87929 70.1874 11.3379 69.3203 13.0721L61.7646 28.1819Z" fill="#B0342E"/>
<path d="M72.2055 64.7252V28.1819H51.3236V66.4653L61.7645 40.363L72.2055 64.7252Z" fill="#D13E37"/>
<path d="M42.6228 75.1661L35.6622 66.4653L23.4811 69.9456L40.8826 28.1819H61.7645L42.6228 75.1661Z" fill="#DD4A43"/>
<path d="M80.9063 75.1661L87.8669 66.4653L100.048 69.9456L82.6465 28.1819H61.7646L80.9063 75.1661Z" fill="#DD4A43"/>
<path d="M40.1233 43.2299L33.9867 58.8461L37.2259 60.1189L43.3625 44.5028L40.1233 43.2299Z" fill="#E66B65"/>
<path d="M42.7385 36.2577L41.4005 39.7385L44.649 40.9873L45.9871 37.5064L42.7385 36.2577Z" fill="#E66B65"/>
<path d="M25.2212 87.3472H21.7409V103.009H25.2212V87.3472Z" fill="#95C43B"/>
<path d="M25.2212 80.3866H21.7409V83.8669H25.2212V80.3866Z" fill="#95C43B"/>
</g>
<defs>
<filter id="filter0_d_39_286" x="-1.23978e-05" y="2.86102e-06" width="123.529" height="123.529" filterUnits="userSpaceOnUse" color-interpolation-filters="sRGB">
<feFlood flood-opacity="0" result="BackgroundImageFix"/>
<feColorMatrix in="SourceAlpha" type="matrix" values="0 0 0 0 0 0 0 0 0 0 0 0 0 0 0 0 0 0 127 0" result="hardAlpha"/>
<feOffset dy="4"/>
<feGaussianBlur stdDeviation="5.65"/>
<feComposite in2="hardAlpha" operator="out"/>
<feColorMatrix type="matrix" values="0 0 0 0 0 0 0 0 0 0 0 0 0 0 0 0 0 0 0.25 0"/>
<feBlend mode="normal" in2="BackgroundImageFix" result="effect1_dropShadow_39_286"/>
<feBlend mode="normal" in="SourceGraphic" in2="effect1_dropShadow_39_286" result="shape"/>
</filter>
</defs>
</svg>
