<svg width="112" height="124" viewBox="0 0 112 124" fill="none" xmlns="http://www.w3.org/2000/svg">
<g filter="url(#filter0_d_39_873)">
<path d="M70.0678 29.1595L54.6438 29.3109L67.8307 22.1203L64.7106 10.9855L73.4655 17.6294L82.2708 10.8929L79.958 19.959L94.4737 21.6242L79.3693 27.5112L73.3477 38.0237L70.0678 29.1595Z" fill="#FFE36C"/>
<path d="M79.4365 15.182L78.7973 17.6714L77.847 21.4139L81.6819 21.8512L87.5185 22.5156L79.3103 25.7198L78.2002 26.1487L77.6115 27.1832L73.6756 34.0542L72.0609 29.6809L71.2367 27.4523L68.865 27.4859L61.3717 27.5616L67.4606 24.2397L69.8154 22.9529L69.0921 20.371L67.6876 15.3587L71.4217 18.1928L73.4653 19.7403L75.5006 18.1844L79.4365 15.182ZM73.4569 15.51L62.8014 7.428C62.4566 7.16728 61.9772 7.49528 62.095 7.90737L65.8458 21.2877L49.4967 30.2024C49.0846 30.4294 49.2444 31.0518 49.7154 31.0434L68.8987 30.8499L72.6832 41.085C72.8178 41.4466 73.3055 41.4802 73.499 41.1522L80.5382 28.8568L99.7299 21.3718C100.167 21.2036 100.083 20.5561 99.6205 20.5056L82.0688 18.504L84.7768 7.86532C84.8862 7.45323 84.4068 7.13364 84.0704 7.39435L73.4569 15.51Z" fill="#FF8F00"/>
<path d="M81.3877 41.1859C80.3196 41.0345 74.9961 46.3413 71.1527 43.0109L71.1443 43.0193C68.8914 41.1904 66.4297 39.6349 63.8107 38.3854C45.5189 29.6642 23.6107 37.4182 14.8811 55.7185C6.15991 74.0103 13.914 95.9184 32.2142 104.648C50.506 113.369 72.4142 105.615 81.1438 87.315C83.978 81.3775 85.0713 75.0615 84.6255 68.939C84.5919 68.5101 84.5162 67.5598 84.7265 66.8533C86.1646 62.026 91.3956 59.6207 91.2863 59.3936C91.177 59.1582 82.4642 41.3373 81.3877 41.1859Z" fill="#4D4D4D"/>
<path d="M91.4953 59.2759C93.8422 57.9251 93.4288 52.8063 90.572 47.8428C87.7152 42.8792 83.4968 39.9505 81.1498 41.3013C78.8029 42.6521 79.2163 47.7709 82.0731 52.7344C84.9299 57.698 89.1484 60.6267 91.4953 59.2759Z" fill="#757575"/>
<path d="M89.3929 52.839C90.314 52.3072 90.398 50.7282 89.5806 49.3123C88.7631 47.8964 87.3537 47.1797 86.4325 47.7115C85.5114 48.2434 85.4273 49.8223 86.2448 51.2382C87.0623 52.6541 88.4717 53.3708 89.3929 52.839Z" fill="#212121"/>
<path opacity="0.9" d="M47.1672 48.1494C49.4716 54.6924 46.0991 58.5947 41.7343 61.0924C39.6486 62.2867 37.2265 62.8081 35.1156 63.9603C31.0115 66.1973 28.5222 70.5117 24.9479 73.5141C24.0564 74.2626 23.0388 74.9522 21.8782 75.0783C20.3308 75.2465 18.817 74.3382 17.8919 73.0851C16.9752 71.8236 13.2159 59.8646 26.9411 47.628C33.072 42.1614 44.6442 40.9756 47.1672 48.1494Z" fill="#757575"/>
<path d="M37.0415 36.5015C40.1448 36.6024 46.486 36.6445 54.5091 39.7982C57.2088 40.8579 59.4879 42.3381 61.9352 43.8519C63.9116 45.0713 66.1571 46.0889 68.4698 45.8703C69.2856 45.7946 70.1855 45.475 70.505 44.7181C70.6985 44.2471 70.6817 43.7678 70.5135 43.2968C70.3116 42.7417 69.622 41.968 68.5623 41.1018C67.0497 40.0816 65.4644 39.1737 63.8191 38.3853C55.1063 34.2308 45.5777 33.8187 37.0415 36.5015Z" fill="url(#paint0_linear_39_873)"/>
<path d="M87.7288 44.0032C87.6867 43.9612 87.6447 43.9107 87.6026 43.8687C87.5942 43.8603 87.5942 43.8519 87.5858 43.8519C87.3924 43.6584 87.1989 43.4734 87.0055 43.2884C86.9803 43.2632 86.9466 43.2379 86.9214 43.2043C84.7937 41.2784 82.6155 40.4626 81.1521 41.2952C78.8057 42.6408 79.2178 47.7625 82.0772 52.7245C82.662 53.7387 83.3286 54.7034 84.0704 55.6091C83.9863 55.3652 80.8409 45.9207 82.8005 43.3893C84.4741 41.2532 87.4344 43.7509 87.7288 44.0032Z" fill="url(#paint1_linear_39_873)"/>
<path d="M75.9799 66.6178C73.9446 65.2806 71.9515 63.4641 70.7152 58.8974C70.5554 58.3171 70.0172 55.4325 71.573 54.9699C72.9186 54.5662 73.9194 56.7781 75.08 58.7208C76.3415 60.8485 78.3851 62.6903 80.5802 63.893C81.2193 64.2378 84.1881 65.575 82.2369 67.442C80.9502 68.6615 77.1741 67.4084 75.9799 66.6178Z" fill="#212121"/>
<path d="M86.6525 48.8811C86.7366 48.8474 95.2728 44.9704 94.5327 39.3441C94.0449 35.6268 92.5984 33.7766 84.9453 31.9601C77.4603 30.1856 73.802 26.7122 73.6506 26.5608C72.9021 25.8376 72.8769 24.6349 73.6085 23.878C74.3318 23.1295 75.526 23.1043 76.2829 23.8276C76.3418 23.878 79.4535 26.7543 85.8283 28.2681C93.246 30.0258 97.4258 32.2376 98.3004 38.8395C99.276 46.2235 91.1351 50.8238 88.8055 52.0432C87.359 52.8086 85.6938 49.3016 86.6525 48.8811Z" fill="#C69461"/>
<path d="M76.266 23.836C75.5175 23.1127 74.3149 23.138 73.5916 23.8864C72.8684 24.6434 72.8852 25.8376 73.6337 26.5693C73.743 26.6786 75.7362 28.5624 79.731 30.2613L80.5299 28.8652L83.608 27.6626C78.7218 26.0983 76.3165 23.878 76.266 23.836Z" fill="#F6BC41"/>
</g>
<defs>
<filter id="filter0_d_39_873" x="4.86374e-05" y="2.86102e-06" width="111.317" height="123.529" filterUnits="userSpaceOnUse" color-interpolation-filters="sRGB">
<feFlood flood-opacity="0" result="BackgroundImageFix"/>
<feColorMatrix in="SourceAlpha" type="matrix" values="0 0 0 0 0 0 0 0 0 0 0 0 0 0 0 0 0 0 127 0" result="hardAlpha"/>
<feOffset dy="4"/>
<feGaussianBlur stdDeviation="5.65"/>
<feComposite in2="hardAlpha" operator="out"/>
<feColorMatrix type="matrix" values="0 0 0 0 0 0 0 0 0 0 0 0 0 0 0 0 0 0 0.25 0"/>
<feBlend mode="normal" in2="BackgroundImageFix" result="effect1_dropShadow_39_873"/>
<feBlend mode="normal" in="SourceGraphic" in2="effect1_dropShadow_39_873" result="shape"/>
</filter>
<linearGradient id="paint0_linear_39_873" x1="37.2257" y1="32.9962" x2="72.3233" y2="44.359" gradientUnits="userSpaceOnUse">
<stop stop-color="#FFF9C4" stop-opacity="0.1"/>
<stop offset="0.002" stop-color="#FFF9C4" stop-opacity="0.101"/>
<stop offset="0.378" stop-color="#FFFCA6" stop-opacity="0.263"/>
<stop offset="0.701" stop-color="#FFFE94" stop-opacity="0.401"/>
<stop offset="0.93" stop-color="#FFFF8D" stop-opacity="0.5"/>
</linearGradient>
<linearGradient id="paint1_linear_39_873" x1="87.6438" y1="52.129" x2="78.4853" y2="40.0463" gradientUnits="userSpaceOnUse">
<stop offset="0.11" stop-color="#FFF9C4" stop-opacity="0"/>
<stop offset="1" stop-color="#FFFF8D"/>
</linearGradient>
</defs>
</svg>
