<svg width="147" height="124" viewBox="0 0 147 124" fill="none" xmlns="http://www.w3.org/2000/svg">
<g filter="url(#filter0_d_39_952)">
<path d="M116.231 7.3H30.7733C28.8165 7.3 27.2266 8.88992 27.2266 10.8467V69.5411C27.2266 71.498 28.8165 73.0879 30.7733 73.0879H116.231C118.188 73.0879 119.778 71.498 119.778 69.5411V10.8467C119.778 8.88992 118.198 7.3 116.231 7.3Z" fill="#B7D5E5"/>
<path d="M114.957 66.8301H32.0471L33.0255 13.5578H113.979L114.957 66.8301Z" fill="url(#paint0_radial_39_952)"/>
<path d="M131.611 108.229H15.9339C15.4957 108.229 15.088 108.199 14.7109 108.137C11.7757 107.689 10.4202 103.877 12.163 101.268L12.5605 100.667H134.444L134.851 101.278C136.747 104.112 134.974 108.168 131.753 108.219C131.712 108.229 131.661 108.229 131.611 108.229Z" fill="#2F7889"/>
<path d="M117.087 74.1784H29.1936C27.8992 74.1784 26.6049 74.9632 25.8813 76.2065L11.6128 102.175C11.0115 103.072 11.6026 104.336 12.6218 104.336H134.373C135.392 104.336 135.983 103.072 135.382 102.175L120.39 76.0537C119.676 74.953 118.382 74.1784 117.087 74.1784Z" fill="#EEEEEE"/>
<path d="M96.2146 99.7699H50.8L53.7047 91.6369H93.5239L96.2146 99.7699Z" fill="#B7D5E5"/>
<g opacity="0.57">
<path d="M82.2826 78.6933L82.0074 76.4512H78.5015L78.634 78.6933H82.2826Z" fill="#69A1BA"/>
<path d="M76.6261 78.6933L76.4834 76.4512H72.9673V78.6933H76.6261Z" fill="#69A1BA"/>
<path d="M103.604 78.6933L102.778 76.4512H99.4556L100.149 78.6933H103.604Z" fill="#69A1BA"/>
<path d="M98.253 78.6933L97.5599 76.4512H94.1763L94.7266 78.6933H98.253Z" fill="#69A1BA"/>
<path d="M92.9735 78.6933L92.4232 76.4512H88.9885L89.4064 78.6933H92.9735Z" fill="#69A1BA"/>
<path d="M112.267 78.6933L111.299 76.4512H104.46L105.296 78.6933H112.267Z" fill="#69A1BA"/>
<path d="M87.2971 78.6933L86.8792 76.4512H83.4038L83.6892 78.6933H87.2971Z" fill="#69A1BA"/>
<path d="M42.6059 78.6933L43.2989 76.4512H39.9764L39.1509 78.6933H42.6059Z" fill="#69A1BA"/>
<path d="M59.6772 78.6933L59.9524 76.4512H56.477L56.0693 78.6933H59.6772Z" fill="#69A1BA"/>
<path d="M48.303 78.6933L48.8534 76.4512H45.4697L44.7869 78.6933H48.303Z" fill="#69A1BA"/>
<path d="M36.9086 78.6933L37.7341 76.4512H34.4931L33.5249 78.6933H36.9086Z" fill="#69A1BA"/>
<path d="M53.9902 78.6933L54.4081 76.4512H50.9735L50.4231 78.6933H53.9902Z" fill="#69A1BA"/>
<path d="M65.354 78.6933L65.4967 76.4512H61.9908L61.7156 78.6933H65.354Z" fill="#69A1BA"/>
<path d="M71.0307 78.6933V76.4512H67.5145L67.3718 78.6933H71.0307Z" fill="#69A1BA"/>
<path d="M93.5851 87.7538H53.4092L52.6448 89.996H94.5126L93.5851 87.7538Z" fill="#69A1BA"/>
<path d="M112.307 89.996L111.074 87.7538H117.74L118.708 89.996H112.307Z" fill="#69A1BA"/>
<path d="M96.6123 89.996L95.7664 87.7538H102.177L103.155 89.996H96.6123Z" fill="#69A1BA"/>
<path d="M105.418 89.996L104.439 87.7538H108.832L109.953 89.996H105.418Z" fill="#69A1BA"/>
<path d="M34.3609 89.996L35.5941 87.7538H28.9287L27.9604 89.996H34.3609Z" fill="#69A1BA"/>
<path d="M50.0563 89.996L50.9022 87.7538H44.4916L43.5132 89.996H50.0563Z" fill="#69A1BA"/>
<path d="M41.2402 89.996L42.2288 87.7538H37.8361L36.7048 89.996H41.2402Z" fill="#69A1BA"/>
<path d="M38.4783 82.4337L39.314 80.2017H32.5161L31.5479 82.4337H38.4783Z" fill="#69A1BA"/>
<path d="M108.027 82.4337L107.202 80.2017H113.989L114.958 82.4337H108.027Z" fill="#69A1BA"/>
<path d="M106.294 82.4337L105.316 80.2017H101.392L102.228 82.4337H106.294Z" fill="#69A1BA"/>
<path d="M96.0819 82.4337L95.4194 80.2017H99.3433L100.138 82.4337H96.0819Z" fill="#69A1BA"/>
<path d="M89.9265 82.4337L89.4475 80.2017H93.3713L93.9828 82.4337H89.9265Z" fill="#69A1BA"/>
<path d="M83.7702 82.4337L83.4849 80.2017H87.3985L87.8367 82.4337H83.7702Z" fill="#69A1BA"/>
<path d="M77.625 82.4337L77.5129 80.2017H81.4368L81.6814 82.4337H77.625Z" fill="#69A1BA"/>
<path d="M71.4692 82.4337L71.5406 80.2017H75.4644L75.5256 82.4337H71.4692Z" fill="#69A1BA"/>
<path d="M65.3132 82.4337L65.568 80.2017H69.4919L69.3797 82.4337H65.3132Z" fill="#69A1BA"/>
<path d="M59.1675 82.4337L59.5955 80.2017H63.5194L63.2238 82.4337H59.1675Z" fill="#69A1BA"/>
<path d="M53.0117 82.4337L53.6232 80.2017H57.5471L57.068 82.4337H53.0117Z" fill="#69A1BA"/>
<path d="M46.8557 82.4337L47.6507 80.2017H51.5745L50.9222 82.4337H46.8557Z" fill="#69A1BA"/>
<path d="M40.7104 82.4337L41.6787 80.2017H45.6025L44.7668 82.4337H40.7104Z" fill="#69A1BA"/>
<path d="M38.4682 86.2149L39.2937 83.9727H30.3759L29.4077 86.2149H38.4682Z" fill="#69A1BA"/>
<path d="M105.907 86.2149L105.122 83.9727H100.872L101.524 86.2149H105.907Z" fill="#69A1BA"/>
<path d="M94.757 86.2149L94.2678 83.9727H98.5076L99.1395 86.2149H94.757Z" fill="#69A1BA"/>
<path d="M87.9797 86.2149L87.6536 83.9727H91.9035L92.3622 86.2149H87.9797Z" fill="#69A1BA"/>
<path d="M81.2123 86.2149L81.0391 83.9727H85.289L85.5948 86.2149H81.2123Z" fill="#69A1BA"/>
<path d="M74.4453 86.2149L74.4351 83.9727H78.6748L78.8277 86.2149H74.4453Z" fill="#69A1BA"/>
<path d="M67.6775 86.2149L67.8202 83.9727H72.0701L72.0599 86.2149H67.6775Z" fill="#69A1BA"/>
<path d="M60.9001 86.2149L61.2059 83.9727H65.4559L65.2826 86.2149H60.9001Z" fill="#69A1BA"/>
<path d="M54.1328 86.2149L54.6016 83.9727H58.8414L58.5153 86.2149H54.1328Z" fill="#69A1BA"/>
<path d="M47.3652 86.2149L47.9869 83.9727H52.2369L51.7477 86.2149H47.3652Z" fill="#69A1BA"/>
<path d="M40.5879 86.2149L41.3727 83.9727H45.6226L44.9805 86.2149H40.5879Z" fill="#69A1BA"/>
<path d="M107.538 86.2149L106.702 83.9727H115.62L116.588 86.2149H107.538Z" fill="#69A1BA"/>
</g>
<path d="M135.321 102.175L120.706 76.2066C119.982 75.116 118.688 74.3313 117.393 74.3313C117.393 74.3313 118.637 75.4524 119.014 75.9925L131.845 100.035C132.416 101.074 131.662 102.338 130.479 102.338H16.3113C15.1392 102.338 14.385 101.085 14.9354 100.055L27.1145 76.4308C27.4712 75.8193 29.0306 74.4026 29.0306 74.4026H28.5719C27.2776 74.4026 25.9832 75.1874 25.2596 76.4308L11.5415 102.175C10.9402 103.072 11.5313 104.336 12.5505 104.336H134.301C135.331 104.336 135.922 103.072 135.321 102.175Z" fill="#B7D5E5"/>
<path d="M34.6665 10.5919H48.1298" stroke="#EEEEEE" stroke-width="2.9923" stroke-miterlimit="10" stroke-linecap="round"/>
<path d="M119.666 12.7221C119.666 11.6621 118.637 11.5806 118.637 12.8342V69.7042C118.637 71.0699 117.526 72.1808 116.16 72.1808H30.702C29.3363 72.1808 28.2254 71.0699 28.2254 69.7042V12.8342C28.2254 11.5806 27.196 11.6621 27.196 12.7221L26.2278 69.7042C26.2278 72.1706 27.4916 74.1784 30.702 74.1784H116.16C118.942 74.1784 120.634 72.1706 120.634 69.7042L119.666 12.7221Z" fill="#75A7BC"/>
</g>
<defs>
<filter id="filter0_d_39_952" x="4.86374e-05" y="2.86102e-06" width="146.93" height="123.529" filterUnits="userSpaceOnUse" color-interpolation-filters="sRGB">
<feFlood flood-opacity="0" result="BackgroundImageFix"/>
<feColorMatrix in="SourceAlpha" type="matrix" values="0 0 0 0 0 0 0 0 0 0 0 0 0 0 0 0 0 0 127 0" result="hardAlpha"/>
<feOffset dy="4"/>
<feGaussianBlur stdDeviation="5.65"/>
<feComposite in2="hardAlpha" operator="out"/>
<feColorMatrix type="matrix" values="0 0 0 0 0 0 0 0 0 0 0 0 0 0 0 0 0 0 0.25 0"/>
<feBlend mode="normal" in2="BackgroundImageFix" result="effect1_dropShadow_39_952"/>
<feBlend mode="normal" in="SourceGraphic" in2="effect1_dropShadow_39_952" result="shape"/>
</filter>
<radialGradient id="paint0_radial_39_952" cx="0" cy="0" r="1" gradientUnits="userSpaceOnUse" gradientTransform="translate(57.5347 -13.958) scale(76.9122 83.3959)">
<stop stop-color="#2F7889"/>
<stop offset="1" stop-color="#424242"/>
</radialGradient>
</defs>
</svg>
