<svg width="107" height="124" viewBox="0 0 107 124" fill="none" xmlns="http://www.w3.org/2000/svg">
<g filter="url(#filter0_d_39_321)">
<path d="M91.3472 83.8669H14.7803C12.8582 83.8669 11.3 85.4251 11.3 87.3472V104.749C11.3 106.671 12.8582 108.229 14.7803 108.229H91.3472C93.2693 108.229 94.8275 106.671 94.8275 104.749V87.3472C94.8275 85.4251 93.2693 83.8669 91.3472 83.8669Z" fill="#E3E3E1"/>
<path d="M91.3472 83.8669H86.1267V92.5677C86.1267 93.7215 85.6684 94.828 84.8525 95.6439C84.0367 96.4597 82.9301 96.9181 81.7763 96.9181H11.3V104.749C11.3 105.672 11.6667 106.557 12.3193 107.21C12.972 107.862 13.8573 108.229 14.7803 108.229H91.3472C92.2702 108.229 93.1555 107.862 93.8082 107.21C94.4608 106.557 94.8275 105.672 94.8275 104.749V87.3472C94.8275 86.4242 94.4608 85.5389 93.8082 84.8863C93.1555 84.2336 92.2702 83.8669 91.3472 83.8669Z" fill="#DBDBD9"/>
<path d="M53.0637 31.6622C62.7556 31.6622 72.0505 35.5123 78.9037 42.3655C85.7569 49.2187 89.607 58.5136 89.607 68.2055V83.8669H16.5204V68.2055C16.5204 58.5136 20.3705 49.2187 27.2237 42.3655C34.0769 35.5123 43.3719 31.6622 53.0637 31.6622Z" fill="#DD4A43"/>
<path d="M53.0638 31.6622C50.6953 31.6667 48.3328 31.8998 46.0092 32.3583C52.8133 35.6215 58.5563 40.7418 62.5756 47.1286C66.5949 53.5153 68.7267 60.9082 68.7252 68.4543V83.8669H89.607V68.2055C89.607 58.5136 85.757 49.2187 78.9038 42.3655C72.0506 35.5123 62.7556 31.6622 53.0638 31.6622Z" fill="#D13E37"/>
<path d="M56.9686 10.0547C57.7414 9.68703 58.609 9.56766 59.4523 9.713C60.2957 9.85834 61.0733 10.2612 61.6784 10.8664C62.2835 11.4715 62.6865 12.2491 62.8318 13.0925C62.9771 13.9358 62.8578 14.8034 62.4901 15.5762C63.2961 15.8632 63.9936 16.3926 64.4868 17.0917C64.98 17.7909 65.2448 18.6255 65.2448 19.4811C65.2448 20.3367 64.98 21.1714 64.4868 21.8705C63.9936 22.5696 63.2961 23.099 62.4901 23.386C62.8578 24.1588 62.9771 25.0264 62.8318 25.8698C62.6865 26.7131 62.2835 27.4908 61.6784 28.0959C61.0733 28.701 60.2957 29.1039 59.4523 29.2492C58.609 29.3946 57.7414 29.2752 56.9686 28.9075C56.6816 29.7136 56.1522 30.411 55.4531 30.9042C54.7539 31.3975 53.9193 31.6622 53.0637 31.6622C52.2081 31.6622 51.3734 31.3975 50.6743 30.9042C49.9752 30.411 49.4458 29.7136 49.1588 28.9075C48.386 29.2752 47.5184 29.3946 46.675 29.2492C45.8317 29.1039 45.054 28.701 44.4489 28.0959C43.8438 27.4908 43.4409 26.7131 43.2956 25.8698C43.1502 25.0264 43.2696 24.1588 43.6372 23.386C42.8312 23.099 42.1337 22.5696 41.6405 21.8705C41.1473 21.1714 40.8826 20.3367 40.8826 19.4811C40.8826 18.6255 41.1473 17.7909 41.6405 17.0917C42.1337 16.3926 42.8312 15.8632 43.6372 15.5762C43.2696 14.8034 43.1502 13.9358 43.2956 13.0925C43.4409 12.2491 43.8438 11.4715 44.4489 10.8664C45.054 10.2612 45.8317 9.85834 46.675 9.713C47.5184 9.56766 48.386 9.68703 49.1588 10.0547C49.4458 9.24865 49.9752 8.55118 50.6743 8.05798C51.3734 7.56477 52.2081 7.3 53.0637 7.3C53.9193 7.3 54.7539 7.56477 55.4531 8.05798C56.1522 8.55118 56.6816 9.24865 56.9686 10.0547Z" fill="#E3E3E1"/>
<path d="M54.804 89.0874H51.3237V108.229H54.804V89.0874Z" fill="#C9C9C8"/>
<path d="M44.3629 89.0874H40.8826V108.229H44.3629V89.0874Z" fill="#C9C9C8"/>
<path d="M33.9221 89.0874H30.4418V108.229H33.9221V89.0874Z" fill="#C9C9C8"/>
<path d="M23.4811 96.048H20.0008V108.229H23.4811V96.048Z" fill="#C9C9C8"/>
<path d="M86.1267 89.0874H82.6464V108.229H86.1267V89.0874Z" fill="#C9C9C8"/>
<path d="M75.6859 89.0874H72.2056V108.229H75.6859V89.0874Z" fill="#C9C9C8"/>
<path d="M65.2448 89.0874H61.7645V108.229H65.2448V89.0874Z" fill="#C9C9C8"/>
<path d="M23.4811 89.0874H20.0008V92.5677H23.4811V89.0874Z" fill="#C9C9C8"/>
<path d="M22.9712 62.4751L32.1819 53.2645L41.3925 62.4751C41.7189 62.8014 42.1614 62.9846 42.6228 62.9846C43.0842 62.9846 43.5268 62.8014 43.8531 62.4751L53.0638 53.2645L62.2744 62.4751C62.6007 62.8014 63.0433 62.9846 63.5047 62.9846C63.9661 62.9846 64.4087 62.8014 64.735 62.4751L73.9456 53.2645L83.1563 62.4751C83.4826 62.8014 83.9251 62.9846 84.3866 62.9846C84.848 62.9846 85.2905 62.8014 85.6169 62.4751L88.5351 59.5569C88.2234 58.2773 87.8423 57.0155 87.3936 55.7773L84.3866 58.7843L75.1759 49.5736C74.8496 49.2474 74.4071 49.0641 73.9456 49.0641C73.4842 49.0641 73.0417 49.2474 72.7153 49.5736L63.5047 58.7843L54.294 49.5736C53.9677 49.2474 53.5252 49.0641 53.0638 49.0641C52.6023 49.0641 52.1598 49.2474 51.8335 49.5736L42.6228 58.7843L33.4122 49.5736C33.0858 49.2474 32.6433 49.0641 32.1819 49.0641C31.7205 49.0641 31.2779 49.2474 30.9516 49.5736L21.7409 58.7843L18.734 55.7773C18.2852 57.0155 17.9041 58.2773 17.5924 59.5569L20.5106 62.4751C20.837 62.8014 21.2795 62.9846 21.7409 62.9846C22.2024 62.9846 22.6449 62.8014 22.9712 62.4751Z" fill="#7EA82D"/>
<path d="M22.9712 76.3964L32.1819 67.1858L41.3925 76.3964C41.7188 76.7226 42.1614 76.9059 42.6228 76.9059C43.0842 76.9059 43.5268 76.7226 43.8531 76.3964L53.0637 67.1858L62.2744 76.3964C62.6007 76.7226 63.0433 76.9059 63.5047 76.9059C63.9661 76.9059 64.4086 76.7226 64.735 76.3964L73.9456 67.1858L83.1563 76.3964C83.4826 76.7226 83.9251 76.9059 84.3866 76.9059C84.848 76.9059 85.2905 76.7226 85.6169 76.3964L89.607 72.4062V68.2055C89.607 67.9741 89.5774 67.7496 89.5722 67.5199L84.3866 72.7055L75.1759 63.4949C74.8496 63.1687 74.407 62.9854 73.9456 62.9854C73.4842 62.9854 73.0417 63.1687 72.7153 63.4949L63.5047 72.7055L54.294 63.4949C53.9677 63.1687 53.5252 62.9854 53.0637 62.9854C52.6023 62.9854 52.1598 63.1687 51.8334 63.4949L42.6228 72.7055L33.4121 63.4949C33.0858 63.1687 32.6433 62.9854 32.1819 62.9854C31.7204 62.9854 31.2779 63.1687 30.9516 63.4949L21.7409 72.7055L16.5553 67.5199C16.5553 67.7496 16.5204 67.9741 16.5204 68.2055V72.4062L20.5106 76.3964C20.837 76.7226 21.2795 76.9059 21.7409 76.9059C22.2023 76.9059 22.6449 76.7226 22.9712 76.3964Z" fill="#7EA82D"/>
<path d="M62.4902 15.5762C62.9066 14.7202 63.0117 13.7459 62.7875 12.8207C62.5633 11.8956 62.0237 11.0775 61.2617 10.5071C58.0319 19.5559 50.7807 24.8112 44.2081 27.8217C44.7893 28.5332 45.5938 29.0276 46.4911 29.2247C47.3885 29.4218 48.326 29.31 49.1519 28.9075C49.4389 29.7136 49.9683 30.411 50.6674 30.9042C51.3666 31.3975 52.2012 31.6622 53.0568 31.6622C53.9124 31.6622 54.7471 31.3975 55.4462 30.9042C56.1454 30.411 56.6747 29.7136 56.9617 28.9075C57.7345 29.2752 58.6022 29.3946 59.4455 29.2492C60.2888 29.1039 61.0665 28.701 61.6716 28.0959C62.2767 27.4907 62.6796 26.7131 62.8249 25.8698C62.9703 25.0264 62.8509 24.1588 62.4833 23.386C63.2895 23.0998 63.9875 22.571 64.4813 21.8723C64.9751 21.1736 65.2407 20.3392 65.2414 19.4836C65.2422 18.628 64.9782 17.7931 64.4856 17.0935C63.993 16.3939 63.296 15.8639 62.4902 15.5762Z" fill="#DBDBD9"/>
</g>
<defs>
<filter id="filter0_d_39_321" x="-1.23978e-05" y="2.86102e-06" width="106.128" height="123.529" filterUnits="userSpaceOnUse" color-interpolation-filters="sRGB">
<feFlood flood-opacity="0" result="BackgroundImageFix"/>
<feColorMatrix in="SourceAlpha" type="matrix" values="0 0 0 0 0 0 0 0 0 0 0 0 0 0 0 0 0 0 127 0" result="hardAlpha"/>
<feOffset dy="4"/>
<feGaussianBlur stdDeviation="5.65"/>
<feComposite in2="hardAlpha" operator="out"/>
<feColorMatrix type="matrix" values="0 0 0 0 0 0 0 0 0 0 0 0 0 0 0 0 0 0 0.25 0"/>
<feBlend mode="normal" in2="BackgroundImageFix" result="effect1_dropShadow_39_321"/>
<feBlend mode="normal" in="SourceGraphic" in2="effect1_dropShadow_39_321" result="shape"/>
</filter>
</defs>
</svg>
