<svg width="77" height="124" viewBox="0 0 77 124" fill="none" xmlns="http://www.w3.org/2000/svg">
<g filter="url(#filter0_d_39_1020)">
<path d="M57.8956 108.229H18.5333C14.5802 108.229 11.3 105.033 11.3 100.996V14.5333C11.3 10.5802 14.5802 7.3 18.5333 7.3H57.8956C61.8487 7.3 65.1289 10.4961 65.1289 14.5333V101.08C65.1289 105.033 61.8487 108.229 57.8956 108.229Z" fill="#424242"/>
<path d="M57.366 104.957H17.97C16.1617 104.957 14.6982 103.494 14.6982 101.686V20.4628C14.6982 18.6629 16.1617 17.1995 17.9616 17.1995H58.4594C60.2677 17.1995 61.7312 18.6629 61.7312 20.4712V101.156C61.7312 101.938 60.5537 104.957 57.366 104.957Z" fill="black"/>
<path d="M46.3308 13.6838H30.1821C29.5934 13.6838 29.1729 13.1791 29.1729 12.6745C29.1729 12.1698 29.6775 11.6652 30.1821 11.6652H46.2467C46.8354 11.6652 47.256 12.1698 47.256 12.6745C47.256 13.1791 46.8354 13.6838 46.3308 13.6838Z" fill="#212121"/>
<path d="M57.8956 8.98215C60.9572 8.98215 63.4467 11.4717 63.4467 14.5333V101.08C63.4467 104.091 60.9572 106.547 57.8956 106.547H18.5333C15.4718 106.547 12.9822 104.057 12.9822 100.996V14.5333C12.9822 11.5222 15.5222 8.98215 18.5333 8.98215H57.8956ZM57.8956 7.3H18.5333C14.5802 7.3 11.3 10.5802 11.3 14.5333V100.996C11.3 105.033 14.5802 108.229 18.5333 108.229H57.8956C61.8487 108.229 65.1289 105.033 65.1289 101.08V14.5333C65.1289 10.4961 61.8487 7.3 57.8956 7.3Z" fill="#757575"/>
<path d="M25.0517 29.1343H19.7025C19.0885 29.1343 18.5923 28.6381 18.5923 28.0241V22.6749C18.5923 22.0609 19.0885 21.5646 19.7025 21.5646H25.0517C25.6657 21.5646 26.162 22.0609 26.162 22.6749V28.0241C26.162 28.6381 25.6657 29.1343 25.0517 29.1343Z" fill="#EAB56E"/>
<path d="M35.6072 29.1343H30.2579C29.6439 29.1343 29.1477 28.6381 29.1477 28.0241V22.6749C29.1477 22.0609 29.6439 21.5646 30.2579 21.5646H35.6072C36.2212 21.5646 36.7174 22.0609 36.7174 22.6749V28.0241C36.7174 28.6381 36.2212 29.1343 35.6072 29.1343Z" fill="#FB8C00"/>
<path d="M46.1627 29.1343H40.8219C40.2079 29.1343 39.7117 28.6381 39.7117 28.0241V22.6749C39.7117 22.0609 40.2079 21.5646 40.8219 21.5646H46.1711C46.7851 21.5646 47.2814 22.0609 47.2814 22.6749V28.0241C47.2814 28.6381 46.7851 29.1343 46.1627 29.1343Z" fill="#FF80AB"/>
<path d="M56.7268 29.1343H51.3776C50.7636 29.1343 50.2673 28.6381 50.2673 28.0241V22.6749C50.2673 22.0609 50.7636 21.5646 51.3776 21.5646H56.7268C57.3408 21.5646 57.837 22.0609 57.837 22.6749V28.0241C57.837 28.6381 57.3408 29.1343 56.7268 29.1343Z" fill="#0288D1"/>
<path d="M25.0517 41.044H19.7025C19.0885 41.044 18.5923 40.5477 18.5923 39.9338V34.5845C18.5923 33.9705 19.0885 33.4743 19.7025 33.4743H25.0517C25.6657 33.4743 26.162 33.9705 26.162 34.5845V39.9338C26.162 40.5477 25.6657 41.044 25.0517 41.044Z" fill="#00BFA5"/>
<path d="M35.6072 41.044H30.2579C29.6439 41.044 29.1477 40.5477 29.1477 39.9338V34.5845C29.1477 33.9705 29.6439 33.4743 30.2579 33.4743H35.6072C36.2212 33.4743 36.7174 33.9705 36.7174 34.5845V39.9338C36.7174 40.5477 36.2212 41.044 35.6072 41.044Z" fill="#81D4FA"/>
<path d="M46.1627 41.044H40.8219C40.2079 41.044 39.7117 40.5477 39.7117 39.9338V34.5845C39.7117 33.9705 40.2079 33.4743 40.8219 33.4743H46.1711C46.7851 33.4743 47.2814 33.9705 47.2814 34.5845V39.9338C47.2814 40.5477 46.7851 41.044 46.1627 41.044Z" fill="#FB8C00"/>
<path d="M56.7268 41.044H51.3776C50.7636 41.044 50.2673 40.5477 50.2673 39.9338V34.5845C50.2673 33.9705 50.7636 33.4743 51.3776 33.4743H56.7268C57.3408 33.4743 57.837 33.9705 57.837 34.5845V39.9338C57.837 40.5477 57.3408 41.044 56.7268 41.044Z" fill="#EAB56E"/>
<path d="M25.0517 52.9536H19.7025C19.0885 52.9536 18.5923 52.4573 18.5923 51.8434V46.4941C18.5923 45.8801 19.0885 45.3839 19.7025 45.3839H25.0517C25.6657 45.3839 26.162 45.8801 26.162 46.4941V51.8434C26.162 52.4573 25.6657 52.9536 25.0517 52.9536Z" fill="#FB8C00"/>
<path d="M35.6072 52.9536H30.2579C29.6439 52.9536 29.1477 52.4573 29.1477 51.8434V46.4941C29.1477 45.8801 29.6439 45.3839 30.2579 45.3839H35.6072C36.2212 45.3839 36.7174 45.8801 36.7174 46.4941V51.8434C36.7174 52.4573 36.2212 52.9536 35.6072 52.9536Z" fill="#FF80AB"/>
<path d="M46.1627 52.9536H40.8219C40.2079 52.9536 39.7117 52.4573 39.7117 51.8434V46.4941C39.7117 45.8801 40.2079 45.3839 40.8219 45.3839H46.1711C46.7851 45.3839 47.2814 45.8801 47.2814 46.4941V51.8434C47.2814 52.4573 46.7851 52.9536 46.1627 52.9536Z" fill="#00BFA5"/>
<path d="M56.7268 52.9536H51.3776C50.7636 52.9536 50.2673 52.4573 50.2673 51.8434V46.4941C50.2673 45.8801 50.7636 45.3839 51.3776 45.3839H56.7268C57.3408 45.3839 57.837 45.8801 57.837 46.4941V51.8434C57.837 52.4573 57.3408 52.9536 56.7268 52.9536Z" fill="#0288D1"/>
<path d="M25.0517 64.8632H19.7025C19.0885 64.8632 18.5923 64.367 18.5923 63.753V58.4038C18.5923 57.7898 19.0885 57.2936 19.7025 57.2936H25.0517C25.6657 57.2936 26.162 57.7898 26.162 58.4038V63.753C26.162 64.367 25.6657 64.8632 25.0517 64.8632Z" fill="#0288D1"/>
<path d="M35.6072 64.8632H30.2579C29.6439 64.8632 29.1477 64.367 29.1477 63.753V58.4038C29.1477 57.7898 29.6439 57.2936 30.2579 57.2936H35.6072C36.2212 57.2936 36.7174 57.7898 36.7174 58.4038V63.753C36.7174 64.367 36.2212 64.8632 35.6072 64.8632Z" fill="#81D4FA"/>
<path d="M25.0517 100.592H19.7025C19.0885 100.592 18.5923 100.096 18.5923 99.4819V94.1327C18.5923 93.5187 19.0885 93.0224 19.7025 93.0224H25.0517C25.6657 93.0224 26.162 93.5187 26.162 94.1327V99.4819C26.162 100.087 25.6657 100.592 25.0517 100.592Z" fill="#81D4FA"/>
<path d="M35.6072 100.592H30.2579C29.6439 100.592 29.1477 100.096 29.1477 99.4819V94.1327C29.1477 93.5187 29.6439 93.0224 30.2579 93.0224H35.6072C36.2212 93.0224 36.7174 93.5187 36.7174 94.1327V99.4819C36.7174 100.087 36.2212 100.592 35.6072 100.592Z" fill="#0288D1"/>
<path d="M46.1627 100.592H40.8219C40.2079 100.592 39.7117 100.096 39.7117 99.4819V94.1327C39.7117 93.5187 40.2079 93.0224 40.8219 93.0224H46.1711C46.7851 93.0224 47.2814 93.5187 47.2814 94.1327V99.4819C47.2814 100.087 46.7851 100.592 46.1627 100.592Z" fill="#00BFA5"/>
<path d="M56.7268 100.592H51.3776C50.7636 100.592 50.2673 100.096 50.2673 99.4819V94.1327C50.2673 93.5187 50.7636 93.0224 51.3776 93.0224H56.7268C57.3408 93.0224 57.837 93.5187 57.837 94.1327V99.4819C57.837 100.087 57.3408 100.592 56.7268 100.592Z" fill="#FF80AB"/>
</g>
<defs>
<filter id="filter0_d_39_1020" x="4.86374e-05" y="2.86102e-06" width="76.4289" height="123.529" filterUnits="userSpaceOnUse" color-interpolation-filters="sRGB">
<feFlood flood-opacity="0" result="BackgroundImageFix"/>
<feColorMatrix in="SourceAlpha" type="matrix" values="0 0 0 0 0 0 0 0 0 0 0 0 0 0 0 0 0 0 127 0" result="hardAlpha"/>
<feOffset dy="4"/>
<feGaussianBlur stdDeviation="5.65"/>
<feComposite in2="hardAlpha" operator="out"/>
<feColorMatrix type="matrix" values="0 0 0 0 0 0 0 0 0 0 0 0 0 0 0 0 0 0 0.25 0"/>
<feBlend mode="normal" in2="BackgroundImageFix" result="effect1_dropShadow_39_1020"/>
<feBlend mode="normal" in="SourceGraphic" in2="effect1_dropShadow_39_1020" result="shape"/>
</filter>
</defs>
</svg>
