<svg width="103" height="124" viewBox="0 0 103 124" fill="none" xmlns="http://www.w3.org/2000/svg">
<g filter="url(#filter0_d_39_783)">
<path d="M70.4654 7.3H14.7804C12.8582 7.3 11.3 8.85819 11.3 10.7803V24.7016C11.3 26.6237 12.8582 28.1819 14.7804 28.1819H70.4654C72.3875 28.1819 73.9457 26.6237 73.9457 24.7016V10.7803C73.9457 8.85819 72.3875 7.3 70.4654 7.3Z" fill="#E3E3E1"/>
<path d="M70.4654 7.3H66.9851V17.7409C66.9851 18.664 66.6184 19.5492 65.9657 20.2019C65.313 20.8546 64.4278 21.2213 63.5047 21.2213H11.3V24.7016C11.3 25.6246 11.6667 26.5098 12.3194 27.1625C12.9721 27.8152 13.8573 28.1819 14.7804 28.1819H70.4654C71.3884 28.1819 72.2736 27.8152 72.9263 27.1625C73.579 26.5098 73.9457 25.6246 73.9457 24.7016V10.7803C73.9457 9.85728 73.579 8.97205 72.9263 8.31936C72.2736 7.66668 71.3884 7.3 70.4654 7.3Z" fill="#DBDBD9"/>
<path d="M88.8362 67.3354L68.887 47.3236V28.1819H16.5953V82.0832C16.5953 89.0175 19.35 95.6678 24.2533 100.571C29.1566 105.474 35.8069 108.229 42.7412 108.229C46.1747 108.229 49.5746 107.553 52.7468 106.239C55.9189 104.925 58.8012 102.999 61.2291 100.571C63.657 98.1433 65.5829 95.261 66.8968 92.0888C68.2108 88.9167 68.887 85.5168 68.887 82.0832V71.6858L76.6342 79.4834C77.4328 80.2864 78.3819 80.924 79.4272 81.3597C80.4725 81.7953 81.5936 82.0205 82.726 82.0223C83.8585 82.0241 84.9802 81.8024 86.0269 81.3701C87.0736 80.9377 88.0247 80.3031 88.8258 79.5026C90.4398 77.8901 91.3476 75.7027 91.3495 73.4212C91.3515 71.1396 90.4475 68.9507 88.8362 67.3354Z" fill="#DD4A43"/>
<path d="M59.104 69.7716C58.1525 69.2416 57.062 69.014 55.9779 69.1194C54.8938 69.2248 53.8676 69.6581 53.036 70.3615L46.1572 66.4653L53.0465 62.5691C53.8716 63.2807 54.8966 63.7198 55.9809 63.8263C57.0653 63.9328 58.1561 63.7016 59.104 63.1643C59.7113 62.8255 60.2444 62.3681 60.6716 61.8192C61.0988 61.2704 61.4113 60.6413 61.5906 59.9693C61.7705 59.307 61.8154 58.6152 61.7228 57.9352C61.6301 57.2551 61.4017 56.6006 61.0512 56.0105C60.3346 54.8157 59.1805 53.9474 57.834 53.59C56.4875 53.2326 55.0547 53.4142 53.84 54.0963C53.233 54.4356 52.7004 54.8934 52.2738 55.4425C51.8472 55.9917 51.5354 56.6209 51.3568 57.293C51.1638 58.0321 51.1389 58.8051 51.2837 59.5552L44.3631 63.4827V55.7112C45.5445 55.2999 46.5421 54.4836 47.179 53.4069C47.8159 52.3303 48.0509 51.0628 47.8424 49.8294C47.6339 48.5959 46.9953 47.4762 46.0398 46.6687C45.0844 45.8613 43.8739 45.4183 42.6229 45.4183C41.372 45.4183 40.1615 45.8613 39.206 46.6687C38.2506 47.4762 37.612 48.5959 37.4034 49.8294C37.1949 51.0628 37.4299 52.3303 38.0668 53.4069C38.7037 54.4836 39.7014 55.2999 40.8828 55.7112V63.4827L33.9657 59.5726C34.1105 58.8225 34.0855 58.0495 33.8926 57.3104C33.7139 56.6379 33.4021 56.0082 32.9755 55.4585C32.549 54.9088 32.0164 54.4503 31.4094 54.1102C30.1946 53.4281 28.7618 53.2465 27.4153 53.6039C26.0688 53.9613 24.9147 54.8297 24.1982 56.0244C23.8476 56.6145 23.6193 57.269 23.5266 57.9491C23.4339 58.6291 23.4788 59.3209 23.6587 59.9833C23.8399 60.6515 24.153 61.2767 24.5794 61.8221C25.0059 62.3675 25.5371 62.822 26.1419 63.159C27.0902 63.6954 28.1809 63.9259 29.2651 63.8191C30.3493 63.7122 31.3741 63.2733 32.1994 62.5622L39.0887 66.4653L32.2116 70.3546C31.3796 69.6512 30.3531 69.218 29.2688 69.1126C28.1844 69.0072 27.0937 69.2347 26.1419 69.7647C25.5343 70.1037 25.0011 70.5613 24.5739 71.1105C24.1468 71.6596 23.8343 72.2891 23.6552 72.9613C23.4754 73.6237 23.4304 74.3155 23.5231 74.9955C23.6158 75.6756 23.8441 76.3301 24.1947 76.9202C24.9138 78.1132 26.0696 78.9789 27.4166 79.3337C28.7636 79.6885 30.1959 79.5044 31.4094 78.8204C32.0163 78.4812 32.5489 78.0234 32.9755 77.4742C33.4021 76.9251 33.714 76.2958 33.8926 75.6238C34.0855 74.8846 34.1105 74.1117 33.9657 73.3616L40.8828 69.448V77.2195C39.7014 77.6307 38.7037 78.4471 38.0668 79.5237C37.4299 80.6004 37.1949 81.8679 37.4034 83.1013C37.612 84.3347 38.2506 85.4545 39.206 86.2619C40.1615 87.0694 41.372 87.5124 42.6229 87.5124C43.8739 87.5124 45.0844 87.0694 46.0398 86.2619C46.9953 85.4545 47.6339 84.3347 47.8424 83.1013C48.0509 81.8679 47.8159 80.6004 47.179 79.5237C46.5421 78.4471 45.5445 77.6307 44.3631 77.2195V69.448L51.2802 73.3581C51.1354 74.1082 51.1603 74.8812 51.3533 75.6203C51.5315 76.293 51.8432 76.9229 52.2697 77.4727C52.6963 78.0224 53.2292 78.4808 53.8365 78.8204C55.0515 79.5012 56.4839 79.6821 57.83 79.3248C59.1761 78.9674 60.3302 78.1 61.0477 76.9063C61.3982 76.3162 61.6266 75.6617 61.7193 74.9816C61.8119 74.3015 61.767 73.6098 61.5872 72.9474C61.4055 72.2794 61.0923 71.6544 60.6659 71.1091C60.2394 70.5637 59.7084 70.109 59.104 69.7716ZM54.7135 58.2083C54.7746 57.9835 54.8801 57.7733 55.0239 57.5901C55.1677 57.4068 55.3467 57.2543 55.5506 57.1416C55.9693 56.904 56.4639 56.8384 56.9301 56.9585C57.3963 57.0786 57.7976 57.3751 58.0494 57.7854C58.163 57.9779 58.2369 58.1911 58.2668 58.4126C58.2967 58.634 58.282 58.8592 58.2234 59.0749C58.1622 59.2993 58.0566 59.5092 57.9128 59.6922C57.769 59.8751 57.59 60.0273 57.3864 60.1399C56.9685 60.3789 56.4738 60.4455 56.0075 60.3256C55.5413 60.2057 55.1401 59.9087 54.8893 59.4978C54.7742 59.3046 54.6993 59.0903 54.6691 58.8675C54.6389 58.6447 54.654 58.4181 54.7135 58.2013V58.2083ZM42.6229 49.0638C42.9636 49.0781 43.2926 49.1922 43.569 49.3919C43.8454 49.5916 44.057 49.8681 44.1776 50.1871C44.2982 50.5061 44.3224 50.8534 44.2472 51.186C44.172 51.5186 44.0008 51.8218 43.7548 52.0579C43.5087 52.294 43.1988 52.4526 42.8633 52.5141C42.5279 52.5755 42.1819 52.537 41.8681 52.4035C41.5544 52.2699 41.2868 52.0471 41.0986 51.7627C40.9105 51.4783 40.81 51.1449 40.8097 50.8039C40.8202 50.333 41.0169 49.8854 41.3568 49.5592C41.6967 49.2331 42.152 49.0549 42.6229 49.0638ZM30.3531 59.4908C30.1025 59.902 29.7015 60.1994 29.2352 60.3196C28.7689 60.4398 28.2741 60.3735 27.856 60.1347C27.6522 60.0219 27.4731 59.8694 27.3293 59.6862C27.1855 59.5029 27.08 59.2927 27.0189 59.0679C26.9604 58.8523 26.9457 58.6271 26.9756 58.4056C27.0054 58.1841 27.0794 57.9709 27.193 57.7785C27.4444 57.3678 27.8458 57.071 28.3121 56.9509C28.7784 56.8307 29.2732 56.8966 29.6918 57.1346C29.8956 57.2474 30.0747 57.3999 30.2185 57.5831C30.3623 57.7663 30.4678 57.9766 30.5288 58.2013C30.5874 58.4171 30.602 58.6424 30.5718 58.8639C30.5416 59.0854 30.4673 59.2986 30.3531 59.4908ZM30.5271 74.7293C30.4659 74.9538 30.3602 75.1637 30.2165 75.3466C30.0727 75.5295 29.8937 75.6818 29.6901 75.7943C29.2721 76.0343 28.7769 76.1015 28.3101 75.9815C27.8432 75.8615 27.4418 75.564 27.1912 75.1522C27.0776 74.9598 27.0037 74.7465 26.9738 74.5251C26.9439 74.3036 26.9587 74.0784 27.0172 73.8627C27.0782 73.638 27.1838 73.4277 27.3275 73.2445C27.4713 73.0613 27.6504 72.9088 27.8542 72.796C28.2726 72.5581 28.7671 72.4922 29.2331 72.6124C29.6992 72.7326 30.1002 73.0293 30.3513 73.4399C30.4664 73.6317 30.5417 73.8447 30.5728 74.0662C30.6039 74.2878 30.5901 74.5133 30.5323 74.7293H30.5271ZM42.6229 83.8669C42.2822 83.8526 41.9533 83.7385 41.6769 83.5388C41.4005 83.3391 41.1889 83.0626 41.0683 82.7436C40.9477 82.4246 40.9235 82.0773 40.9987 81.7447C41.0738 81.4121 41.2451 81.1089 41.4911 80.8728C41.7371 80.6367 42.0471 80.478 42.3825 80.4166C42.7179 80.3552 43.064 80.3936 43.3777 80.5272C43.6915 80.6608 43.959 80.8836 44.1472 81.168C44.3354 81.4524 44.4359 81.7858 44.4362 82.1268C44.4257 82.5977 44.2289 83.0453 43.8891 83.3714C43.5492 83.6976 43.0939 83.8758 42.6229 83.8669ZM58.0494 75.1522C57.7982 75.5632 57.3969 75.8603 56.9305 75.9805C56.464 76.1007 55.9691 76.0345 55.5506 75.7961C55.3467 75.6833 55.1677 75.5308 55.0239 75.3476C54.8801 75.1643 54.7746 74.9541 54.7135 74.7293C54.6547 74.5137 54.6398 74.2885 54.6697 74.067C54.6996 73.8455 54.7737 73.6322 54.8876 73.4399C55.1384 73.029 55.5394 72.7319 56.0056 72.6117C56.4718 72.4916 56.9664 72.5577 57.3847 72.796C57.5885 72.9088 57.7676 73.0613 57.9114 73.2445C58.0551 73.4277 58.1607 73.638 58.2217 73.8627C58.2805 74.0783 58.2955 74.3034 58.2659 74.5249C58.2363 74.7464 58.1627 74.9596 58.0494 75.1522Z" fill="#E3E3E1"/>
<path d="M46.1032 36.8827H39.1426V40.363H46.1032V36.8827Z" fill="#B0342E"/>
<path d="M60.0245 36.8827H53.0638V40.363H60.0245V36.8827Z" fill="#B0342E"/>
<path d="M32.1819 36.8827H25.2213V40.363H32.1819V36.8827Z" fill="#B0342E"/>
<path d="M46.1032 92.5677H39.1426V96.048H46.1032V92.5677Z" fill="#B0342E"/>
<path d="M60.0245 92.5677H53.0638V96.048H60.0245V92.5677Z" fill="#B0342E"/>
<path d="M32.1819 92.5677H25.2213V96.048H32.1819V92.5677Z" fill="#B0342E"/>
<path d="M47.8434 12.5205H44.363V28.1819H47.8434V12.5205Z" fill="#C9C9C8"/>
<path d="M40.8828 12.5205H37.4025V28.1819H40.8828V12.5205Z" fill="#C9C9C8"/>
<path d="M33.9222 12.5205H30.4419V28.1819H33.9222V12.5205Z" fill="#C9C9C8"/>
<path d="M26.9616 12.5205H23.4813V28.1819H26.9616V12.5205Z" fill="#C9C9C8"/>
<path d="M68.7252 12.5205H65.2449V28.1819H68.7252V12.5205Z" fill="#C9C9C8"/>
<path d="M61.7646 12.5205H58.2843V28.1819H61.7646V12.5205Z" fill="#C9C9C8"/>
<path d="M54.8039 12.5205H51.3236V28.1819H54.8039V12.5205Z" fill="#C9C9C8"/>
<path d="M20.0008 19.4811H16.5205V28.1819H20.0008V19.4811Z" fill="#C9C9C8"/>
<path d="M20.0008 12.5205H16.5205V16.0008H20.0008V12.5205Z" fill="#C9C9C8"/>
<path d="M68.7252 28.1819H16.5205V33.4024H68.7252V28.1819Z" fill="#D13E37"/>
</g>
<defs>
<filter id="filter0_d_39_783" x="4.86374e-05" y="2.86102e-06" width="102.649" height="123.529" filterUnits="userSpaceOnUse" color-interpolation-filters="sRGB">
<feFlood flood-opacity="0" result="BackgroundImageFix"/>
<feColorMatrix in="SourceAlpha" type="matrix" values="0 0 0 0 0 0 0 0 0 0 0 0 0 0 0 0 0 0 127 0" result="hardAlpha"/>
<feOffset dy="4"/>
<feGaussianBlur stdDeviation="5.65"/>
<feComposite in2="hardAlpha" operator="out"/>
<feColorMatrix type="matrix" values="0 0 0 0 0 0 0 0 0 0 0 0 0 0 0 0 0 0 0.25 0"/>
<feBlend mode="normal" in2="BackgroundImageFix" result="effect1_dropShadow_39_783"/>
<feBlend mode="normal" in="SourceGraphic" in2="effect1_dropShadow_39_783" result="shape"/>
</filter>
</defs>
</svg>
